<svg width="12" height="12" viewBox="0 0 12 12" fill="none" xmlns="http://www.w3.org/2000/svg">
<circle cx="6" cy="6" r="6" fill="white"/>
<path d="M4.74965 8.50004C4.74946 8.40268 4.78336 8.30833 4.84548 8.23337L6.71215 6.00004L4.91215 3.76254C4.87754 3.71992 4.85169 3.67088 4.83609 3.61824C4.8205 3.56559 4.81546 3.51039 4.82127 3.45579C4.82707 3.4012 4.84361 3.34829 4.86994 3.30011C4.89626 3.25193 4.93184 3.20942 4.97465 3.17504C5.01727 3.14043 5.06631 3.11458 5.11895 3.09898C5.17159 3.08339 5.22679 3.07835 5.28139 3.08416C5.33598 3.08996 5.38889 3.1065 5.43708 3.13283C5.48526 3.15915 5.52776 3.19473 5.56215 3.23754L7.57465 5.73754C7.63593 5.81209 7.66943 5.90561 7.66943 6.00212C7.66943 6.09863 7.63593 6.19215 7.57465 6.2667L5.49131 8.7667C5.45633 8.80889 5.41338 8.84377 5.3649 8.86933C5.31642 8.8949 5.26337 8.91064 5.2088 8.91568C5.15423 8.92071 5.0992 8.91492 5.04686 8.89865C4.99453 8.88239 4.94592 8.85595 4.90381 8.82087C4.85602 8.7821 4.8174 8.73322 4.79075 8.67774C4.76409 8.62227 4.75005 8.56158 4.74965 8.50004Z" fill="#3F79E9"/>
</svg>
