<svg width="current" height="current" viewBox="0 0 24 24" fill="none" xmlns="http://www.w3.org/2000/svg">
<path d="M15.5901 2.52999C15.1682 2.10834 14.5961 1.87148 13.9996 1.87148C13.4031 1.87148 12.831 2.10834 12.4091 2.52999L2.53011 12.41C2.32118 12.6189 2.15544 12.867 2.04237 13.14C1.92929 13.4129 1.87109 13.7055 1.87109 14.001C1.87109 14.2965 1.92929 14.5891 2.04237 14.862C2.15544 15.135 2.32118 15.3831 2.53011 15.592L3.70211 16.763C4.21211 17.274 4.92911 17.183 5.36211 16.925C5.60097 16.7832 5.88026 16.7249 6.15588 16.7595C6.43151 16.7941 6.68777 16.9195 6.88419 17.1159C7.08061 17.3123 7.20601 17.5686 7.24059 17.8442C7.27516 18.1199 7.21694 18.3991 7.07511 18.638C6.81811 19.071 6.72611 19.788 7.23711 20.298L8.41011 21.47C8.61905 21.6789 8.86708 21.8447 9.14007 21.9577C9.41305 22.0708 9.70564 22.129 10.0011 22.129C10.2966 22.129 10.5892 22.0708 10.8622 21.9577C11.1351 21.8447 11.3832 21.6789 11.5921 21.47L21.4701 11.592C21.679 11.3831 21.8448 11.135 21.9579 10.862C22.0709 10.5891 22.1291 10.2965 22.1291 10.001C22.1291 9.70552 22.0709 9.41293 21.9579 9.13995C21.8448 8.86697 21.679 8.61893 21.4701 8.40999L20.2991 7.23799C19.7891 6.72799 19.0711 6.81799 18.6381 7.07599C18.3993 7.21782 18.12 7.27604 17.8443 7.24147C17.5687 7.2069 17.3125 7.0815 17.116 6.88507C16.9196 6.68865 16.7942 6.43239 16.7596 6.15676C16.7251 5.88114 16.7833 5.60185 16.9251 5.36299C17.1831 4.92999 17.2741 4.21299 16.7631 3.70299L15.5911 2.52999H15.5901Z" fill="current"/>
</svg>
