<svg width="20" height="20" viewBox="0 0 20 20" fill="none" xmlns="http://www.w3.org/2000/svg">
<path d="M7.5 1.25C6.83696 1.25 6.20107 1.51339 5.73223 1.98223C5.26339 2.45107 5 3.08696 5 3.75V6.25H6.875C7.7038 6.25 8.49866 6.57924 9.08471 7.16529C9.67076 7.75134 10 8.5462 10 9.375V13.75H12.5V15H10V16.25H14.375C14.5408 16.25 14.6997 16.1842 14.8169 16.0669C14.9342 15.9497 15 15.7908 15 15.625C15 15.4592 14.9342 15.3003 14.8169 15.1831C14.6997 15.0658 14.5408 15 14.375 15H13.75V13.75H16.25C16.913 13.75 17.5489 13.4866 18.0178 13.0178C18.4866 12.5489 18.75 11.913 18.75 11.25V3.75C18.75 3.08696 18.4866 2.45107 18.0178 1.98223C17.5489 1.51339 16.913 1.25 16.25 1.25H7.5Z" fill="black" fill-opacity="0.5"/>
<path d="M3.125 7.5C2.62772 7.5 2.15081 7.69754 1.79917 8.04917C1.44754 8.40081 1.25 8.87772 1.25 9.375V16.875C1.25 17.3723 1.44754 17.8492 1.79917 18.2008C2.15081 18.5525 2.62772 18.75 3.125 18.75H6.875C7.37228 18.75 7.84919 18.5525 8.20083 18.2008C8.55246 17.8492 8.75 17.3723 8.75 16.875V9.375C8.75 8.87772 8.55246 8.40081 8.20083 8.04917C7.84919 7.69754 7.37228 7.5 6.875 7.5H3.125ZM3.75 15.625C3.75 15.4592 3.81585 15.3003 3.93306 15.1831C4.05027 15.0658 4.20924 15 4.375 15H5.625C5.79076 15 5.94973 15.0658 6.06694 15.1831C6.18415 15.3003 6.25 15.4592 6.25 15.625C6.25 15.7908 6.18415 15.9497 6.06694 16.0669C5.94973 16.1842 5.79076 16.25 5.625 16.25H4.375C4.20924 16.25 4.05027 16.1842 3.93306 16.0669C3.81585 15.9497 3.75 15.7908 3.75 15.625Z" fill="black" fill-opacity="0.5"/>
</svg>
