<svg width="24" height="24" viewBox="0 0 24 24" fill="none" xmlns="http://www.w3.org/2000/svg">
<path d="M19 19L5 19C4.44772 19 4 19.4477 4 20C4 20.5523 4.44772 21 5 21H19C19.5523 21 20 20.5523 20 20C20 19.4477 19.5523 19 19 19Z" fill="#727272"/>
<path d="M4 18V20C4 20.5523 4.44772 21 5 21C5.55228 21 6 20.5523 6 20V18C6 17.4477 5.55228 17 5 17C4.44772 17 4 17.4477 4 18Z" fill="#727272"/>
<path d="M18 18V20C18 20.5523 18.4477 21 19 21C19.5523 21 20 20.5523 20 20V18C20 17.4477 19.5523 17 19 17C18.4477 17 18 17.4477 18 18Z" fill="#727272"/>
<path d="M16.0015 11C16.1567 11 16.3098 11.0361 16.4487 11.1056C16.5875 11.175 16.7083 11.2758 16.8015 11.4C16.8803 11.505 16.9376 11.6246 16.9702 11.7518C17.0028 11.879 17.01 12.0114 16.9914 12.1414C16.9728 12.2714 16.9288 12.3965 16.8619 12.5095C16.795 12.6225 16.7065 12.7212 16.6015 12.8L12.6015 15.8C12.4302 15.9251 12.2236 15.9926 12.0115 15.9926C11.7993 15.9926 11.5927 15.9251 11.4215 15.8L7.42147 12.98C7.20588 12.8271 7.05961 12.595 7.01464 12.3345C6.96966 12.074 7.02964 11.8064 7.18147 11.59C7.25725 11.4818 7.35371 11.3898 7.46527 11.3191C7.57683 11.2484 7.70129 11.2005 7.83145 11.1782C7.96161 11.1559 8.09491 11.1596 8.22364 11.1891C8.35237 11.2186 8.47398 11.2733 8.58147 11.35L12.0015 13.76L15.4015 11.2C15.5746 11.0702 15.7851 11 16.0015 11Z" fill="#727272"/>
<path d="M12.0015 4C12.2667 4 12.521 4.10536 12.7086 4.29289C12.8961 4.48043 13.0015 4.73478 13.0015 5L13.0015 13C13.0015 13.2652 12.8961 13.5196 12.7086 13.7071C12.521 13.8946 12.2667 14 12.0015 14C11.7362 14 11.4819 13.8946 11.2944 13.7071C11.1068 13.5196 11.0015 13.2652 11.0015 13L11.0015 5C11.0015 4.73478 11.1068 4.48043 11.2944 4.29289C11.4819 4.10536 11.7362 4 12.0015 4Z" fill="#727272"/>
</svg>
