<svg width="current" height="current" viewBox="0 0 18 18" fill="none" xmlns="http://www.w3.org/2000/svg">
<g opacity="0.5">
<path d="M2.7872 8.93066H5.9381C6.12529 8.93058 6.30769 8.9899 6.45903 9.10007C6.61038 9.21023 6.72287 9.36558 6.78032 9.54374C6.93079 10.0139 7.22692 10.4239 7.62587 10.7146C8.02483 11.0053 8.50592 11.1615 8.99954 11.1607C9.49317 11.1616 9.97428 11.0054 10.3732 10.7147C10.7722 10.424 11.0683 10.0139 11.2188 9.54374C11.2763 9.36555 11.3888 9.2102 11.5402 9.10003C11.6916 8.98986 11.8741 8.93056 12.0613 8.93066H15.2122C15.3285 8.93064 15.4437 8.95353 15.5511 8.99801C15.6585 9.0425 15.7562 9.10772 15.8384 9.18995C15.9206 9.27217 15.9858 9.36979 16.0303 9.47722C16.0748 9.58466 16.0977 9.6998 16.0977 9.81608V14.8658C16.0975 15.1006 16.0042 15.3256 15.8381 15.4916C15.6721 15.6576 15.447 15.7508 15.2122 15.7509H2.7872C2.67094 15.7509 2.55583 15.728 2.44842 15.6836C2.341 15.6391 2.2434 15.5739 2.16118 15.4917C2.07897 15.4095 2.01374 15.312 1.96923 15.2046C1.92472 15.0972 1.9018 14.9821 1.90178 14.8658V9.81608C1.90178 9.32666 2.29778 8.93066 2.7872 8.93066Z" fill="black"/>
<path d="M9.18549 9.40271C9.14103 9.46499 9.06831 9.50225 8.99181 9.50225H8.99127C8.91423 9.50225 8.84259 9.46499 8.79759 9.40181L6.34887 5.95787C6.32369 5.92215 6.30877 5.88021 6.30572 5.83662C6.30268 5.79302 6.31162 5.74942 6.33159 5.71055C6.3516 5.67163 6.38197 5.63899 6.41936 5.61625C6.45675 5.5935 6.49969 5.58154 6.54345 5.58167H7.69527V2.48783C7.69527 2.35553 7.80201 2.24915 7.93341 2.24915H10.0657C10.1975 2.24915 10.3038 2.35553 10.3038 2.48783V5.58167H11.4566C11.5002 5.58173 11.5431 5.59381 11.5803 5.61659C11.6176 5.63937 11.6479 5.67196 11.6679 5.7108C11.6879 5.74964 11.6968 5.79324 11.6937 5.83682C11.6906 5.88039 11.6756 5.92227 11.6502 5.95787L9.18549 9.40271Z" fill="black"/>
</g>
</svg>
