<svg width="100%" height="100%" viewBox="0 0 882 517" fill="none" xmlns="http://www.w3.org/2000/svg">
<path d="M441 516.05C684.558 516.05 882 487.421 882 452.106C882 416.791 684.558 388.162 441 388.162C197.442 388.162 0 416.791 0 452.106C0 487.421 197.442 516.05 441 516.05Z" fill="#EAEAEA"/>
<path d="M122.619 439.105C121.165 439.105 120.103 436.69 120.486 434.481L126.62 397.271H134.505L124.733 436.725C124.376 438.179 123.54 439.12 122.619 439.105Z" fill="#131F2D"/>
<path d="M126.438 398.372C127.801 398.241 129.172 398.494 130.398 399.101C131.624 399.708 132.656 400.646 133.378 401.809L134.505 397.28L126.66 396.807L126.438 398.372Z" fill="#131F2D"/>
<path d="M97.0249 214.289L134.887 340.149C134.887 340.149 233.015 400.787 236.079 400.787H594.3C597.359 400.787 599.835 398.055 599.835 394.689C599.835 394.689 615.244 343.43 573.134 327.625C531.025 311.82 484.432 342.6 458.451 333.452C454.717 332.133 452.126 328.742 450.188 323.891C438.614 295.014 449.932 214.525 377.755 214.244L97.0249 214.289Z" fill="#D5D6DA"/>
<path d="M586.651 441.741C588.106 441.716 589.167 439.32 588.785 437.117L582.782 400.294H574.645L583.355 439.175C583.733 441.741 585.746 441.751 586.651 441.741Z" fill="#131F2D"/>
<path d="M228.708 441.741C230.162 441.716 231.224 439.32 230.841 437.117L224.843 400.294H216.706L225.442 439.175C225.769 441.741 227.787 441.751 228.708 441.741Z" fill="#131F2D"/>
<path d="M103.522 214.289L134.888 340.149L164.074 350.781L201.76 322.296C201.76 322.296 365.125 323.927 450.229 323.891C438.655 295.014 449.972 214.525 377.796 214.244L103.522 214.289Z" fill="#EAEAEA"/>
<path d="M94.0364 235.478L114.266 388.293C115.383 396.726 119.766 402.659 124.798 402.578L236.085 400.787C236.085 400.787 244.982 343.425 217.994 327.625C191.007 311.825 161.161 342.6 144.524 333.447C129.896 325.396 141.042 236.952 107.336 215.361C99.7882 210.55 92.1695 222.068 94.0364 235.478Z" fill="#B8C1C9"/>
<path d="M233.302 369.022C233.118 369.023 232.94 368.952 232.807 368.824C232.675 368.697 232.598 368.522 232.592 368.338C232.592 368.086 231.505 343.028 217.425 334.685C217.269 334.585 217.158 334.428 217.116 334.248C217.073 334.068 217.102 333.878 217.197 333.719C217.292 333.559 217.444 333.443 217.623 333.394C217.802 333.346 217.993 333.368 218.155 333.457C224.279 337.09 228.964 344.276 231.702 354.244C232.951 358.832 233.727 363.536 234.016 368.282C234.022 368.471 233.953 368.655 233.824 368.794C233.695 368.932 233.516 369.014 233.327 369.022H233.302Z" fill="#EAEAEA"/>
<path d="M116.369 237.048C116.23 237.048 116.094 237.008 115.978 236.932C115.862 236.856 115.77 236.748 115.715 236.62C113.868 232.374 108.071 221.651 103.456 223.035C97.8556 224.71 98.5902 234.492 98.5953 234.608C98.6106 234.796 98.5506 234.982 98.4284 235.126C98.3062 235.27 98.1318 235.36 97.9436 235.375C97.7554 235.39 97.5689 235.33 97.4249 235.208C97.281 235.086 97.1916 234.912 97.1762 234.723C97.0595 232.834 97.1812 230.937 97.5385 229.078C98.3286 225.082 100.236 222.536 103.049 221.681C105.967 220.811 109.228 223.025 112.741 228.263C114.375 230.745 115.807 233.355 117.023 236.067C117.061 236.153 117.081 236.245 117.082 236.339C117.084 236.432 117.066 236.525 117.032 236.612C116.997 236.699 116.946 236.779 116.88 236.846C116.815 236.913 116.737 236.966 116.651 237.003C116.561 237.037 116.465 237.053 116.369 237.048V237.048Z" fill="#EAEAEA"/>
<path d="M426.321 213.374C428.646 215.774 450.979 236.173 454.124 261.176L435.284 259.54L418.788 229.168L426.321 213.374Z" fill="#FF7955"/>
<g opacity="0.5">
<path opacity="0.5" d="M84.0928 299.768C83.3984 284.672 69.9574 271.881 54.9766 271.881C33.7509 271.881 26.7964 288.295 25.951 303.4C25.0804 319.09 38.778 329.822 53.7588 329.822C68.7396 329.822 84.9734 318.536 84.0928 299.768Z" fill="#B8C1C9"/>
<path opacity="0.5" d="M57.5884 300.94C57.4324 299.3 55.7013 298.203 54.0659 298.203C52.4304 298.203 50.6792 300.215 50.6792 301.846C50.6792 303.476 52.4304 304.865 54.0659 304.865C55.7013 304.865 57.8853 303.989 57.5884 300.94Z" fill="#B8C1C9"/>
<path opacity="0.5" d="M54.066 302.45H53.4773C53.3995 302.45 53.3225 302.434 53.2508 302.404C53.179 302.374 53.1139 302.331 53.0591 302.275C53.0044 302.22 52.9611 302.155 52.9319 302.083C52.9026 302.011 52.8878 301.934 52.8885 301.856C52.8885 301.529 52.1488 300.417 52.4708 300.417L52.8029 299.717L53.5075 283.465L52.7728 283.918C52.6842 284.045 52.5489 284.133 52.3962 284.161C52.2435 284.189 52.0859 284.156 51.9575 284.069C51.8282 283.979 51.7397 283.842 51.7114 283.687C51.6831 283.532 51.7173 283.373 51.8066 283.243L53.6131 280.597C53.6833 280.492 53.7855 280.413 53.9043 280.371C54.0231 280.33 54.1522 280.327 54.2723 280.365C54.3927 280.404 54.4976 280.48 54.5718 280.582C54.646 280.684 54.6856 280.807 54.685 280.934L55.6663 301.811C55.6663 302.138 54.4032 302.45 54.066 302.45Z" fill="#B8C1C9"/>
<path opacity="0.5" d="M56.0939 283.988C56.0066 283.987 55.9207 283.967 55.8423 283.929C55.7639 283.89 55.6951 283.835 55.641 283.767L53.3966 282.172C53.1903 281.915 53.462 280.662 53.7137 280.471C53.7733 280.422 53.842 280.385 53.9159 280.363C53.9898 280.341 54.0674 280.334 54.1441 280.341C54.2209 280.349 54.2953 280.373 54.3631 280.409C54.4308 280.446 54.4906 280.496 54.5389 280.556L56.5518 283.032C56.6499 283.155 56.696 283.311 56.68 283.467C56.664 283.623 56.5872 283.767 56.4663 283.867C56.3595 283.949 56.2281 283.991 56.0939 283.988V283.988Z" fill="#B8C1C9"/>
<path opacity="0.5" d="M43.4233 304.367C43.3442 304.367 43.2659 304.351 43.1932 304.32C43.1204 304.289 43.0549 304.243 43.0006 304.186L41.2544 302.364C41.1747 302.279 41.1213 302.174 41.1007 302.059C41.0802 301.945 41.0934 301.827 41.1387 301.72C41.1819 301.613 41.2563 301.521 41.3523 301.456C41.4483 301.392 41.5614 301.357 41.6771 301.358L55.5408 300.623C55.8628 300.623 56.044 301.655 56.044 301.982V302.606C56.0446 302.683 56.0299 302.76 56.0006 302.832C55.9713 302.904 55.928 302.97 55.8733 303.025C55.8186 303.08 55.7534 303.124 55.6817 303.154C55.6099 303.184 55.5329 303.199 55.4552 303.199C55.1331 303.199 54.4035 303.491 54.4035 303.164L54.8715 302.601L43.0609 302.57L43.8409 303.391C43.951 303.502 44.0127 303.652 44.0127 303.808C44.0127 303.965 43.951 304.115 43.8409 304.226C43.7252 304.325 43.5755 304.376 43.4233 304.367V304.367Z" fill="#B8C1C9"/>
<path opacity="0.5" d="M41.6771 302.546C41.541 302.545 41.4094 302.497 41.3047 302.41C41.1838 302.309 41.107 302.166 41.091 302.01C41.075 301.853 41.121 301.697 41.2192 301.574L42.8546 299.562C42.9033 299.502 42.9634 299.452 43.0313 299.416C43.0993 299.38 43.1738 299.357 43.2505 299.349C43.3272 299.342 43.4047 299.35 43.4784 299.372C43.5521 299.395 43.6206 299.432 43.6799 299.481C43.8006 299.58 43.8772 299.723 43.8932 299.879C43.9092 300.034 43.8633 300.19 43.7655 300.311L43.1213 301.821C42.6761 302.129 42.19 302.373 41.6771 302.546Z" fill="#B8C1C9"/>
</g>
<path d="M834.969 367.884L558.985 384.867H548.417L547.788 212.961L558.985 211.119L834.969 218.169V367.884Z" fill="#016EB9"/>
<path d="M845.532 367.884L558.984 384.867V211.119L845.532 218.169V367.884Z" fill="#7FD1FE"/>
<path d="M613.095 478.297C612.23 478.297 611.611 476.964 611.827 475.746L615.395 455.448H620.236L615.053 476.883C614.846 478.297 613.644 478.302 613.095 478.297Z" fill="#291429"/>
<path d="M629.112 482.886C628.247 482.886 627.603 481.553 627.844 480.335L631.412 460.037H636.248L631.07 481.472C630.858 482.886 629.661 482.891 629.112 482.886Z" fill="#291429"/>
<path d="M789.64 468.319C790.269 468.319 790.716 467.353 790.56 466.473L787.969 451.75H784.446L788.205 467.298C788.371 468.319 789.242 468.324 789.64 468.319Z" fill="#291429"/>
<path d="M790.088 457.45L642.7 465.245C642.484 465.257 642.267 465.257 642.051 465.245L610.851 462.688C609.74 462.594 608.695 462.122 607.889 461.352C607.084 460.581 606.566 459.557 606.423 458.452L599.333 405.678C599.237 404.987 599.289 404.284 599.487 403.614C599.685 402.945 600.023 402.326 600.48 401.798C600.936 401.271 601.5 400.846 602.134 400.554C602.767 400.262 603.456 400.108 604.154 400.103H638.876L800.796 402.825C801.531 402.843 802.253 403.025 802.908 403.359C803.563 403.693 804.134 404.17 804.58 404.754C805.026 405.339 805.335 406.016 805.484 406.736C805.633 407.456 805.618 408.2 805.441 408.914L794.541 453.697C794.3 454.717 793.737 455.634 792.935 456.31C792.133 456.986 791.134 457.385 790.088 457.45V457.45Z" fill="#657285"/>
<path d="M789.947 457.456L647.415 465.003C646.071 465.068 644.756 464.595 643.759 463.69C642.763 462.786 642.167 461.522 642.101 460.178L639.188 405.588C639.146 404.892 639.249 404.194 639.489 403.539C639.729 402.884 640.101 402.285 640.583 401.781C641.064 401.276 641.645 400.876 642.288 400.606C642.931 400.335 643.623 400.2 644.321 400.209L800.58 402.83C801.343 402.849 802.093 403.038 802.774 403.385C803.454 403.732 804.048 404.227 804.511 404.834C804.975 405.442 805.296 406.145 805.45 406.893C805.605 407.641 805.59 408.414 805.406 409.155L794.581 453.586C794.331 454.646 793.745 455.595 792.909 456.293C792.073 456.991 791.034 457.399 789.947 457.456Z" fill="#B8C1C9"/>
<path d="M726.103 401.628H686.203C683.649 401.618 681.195 400.627 679.35 398.86C677.506 397.092 676.41 394.684 676.29 392.133L671.358 296.876C671.273 295.426 671.507 293.976 672.041 292.626C672.576 291.276 673.4 290.059 674.455 289.061C675.51 288.063 676.77 287.307 678.147 286.848C679.525 286.388 680.986 286.235 682.429 286.4L727.266 291.633C729.695 291.927 731.931 293.104 733.55 294.939C735.169 296.774 736.057 299.139 736.047 301.586V391.609C736.054 392.92 735.802 394.22 735.305 395.434C734.809 396.647 734.078 397.751 733.154 398.681C732.23 399.612 731.132 400.351 729.922 400.857C728.712 401.362 727.415 401.624 726.103 401.628V401.628Z" fill="#016EB9"/>
<path d="M736.248 390.2H668.636C665.632 390.2 663.196 392.635 663.196 395.64V396.57C663.196 399.575 665.632 402.01 668.636 402.01H736.248C739.253 402.01 741.688 399.575 741.688 396.57V395.64C741.688 392.635 739.253 390.2 736.248 390.2Z" fill="#016EB9"/>
<path d="M540.959 385.344C544.799 354.605 543.978 333.577 534.865 321.114C524.907 307.473 500.45 293.65 490.159 293.046C473.372 292.04 463.217 298.737 463.217 298.737C450.637 324.938 470.353 328.425 484.956 329.134C485.459 329.134 485.922 329.185 486.405 329.215C495.247 329.768 510.962 332.018 516.91 340.788C521.621 347.742 528.213 355.979 529.592 381.163C529.858 385.994 530.598 391.267 535.424 391.136C535.424 391.146 539.691 395.634 540.959 385.344Z" fill="#FF7955"/>
<path d="M540.959 385.345C540.959 385.345 539.711 395.911 541.674 398.483C543.637 401.054 550.546 406.282 546.354 407.132C543.943 407.635 536.924 402.387 534.78 401.165C532.636 399.942 530.12 399.726 529.355 397.396C528.51 394.83 529.582 381.173 529.582 381.173C529.582 381.173 532.707 383.563 534.523 384.137C536.602 384.837 538.768 385.243 540.959 385.345V385.345Z" fill="#131F2D"/>
<path d="M519.522 389.119C522.446 357.207 524.021 339.656 515.366 326.881C509.805 318.674 501.447 312.475 490.517 308.464C482.717 305.601 473.538 303.845 463.247 303.241C446.46 302.235 448.241 295.623 448.241 295.623C434.655 329.165 475.028 326.654 487.965 340.944C493.602 347.169 505.176 354.837 506.554 380.021C506.816 384.852 506.283 392.772 511.124 392.641C511.124 392.641 518.556 399.615 519.522 389.119Z" fill="#FF7955"/>
<path d="M519.537 387.669C519.537 387.669 519.728 399.429 521.686 401.975C523.643 404.521 530.558 409.774 526.366 410.624C523.96 411.128 516.936 405.879 514.792 404.662C512.648 403.444 510.127 403.223 509.362 400.888C508.522 398.322 506.72 384.786 506.72 384.786C508.815 386.298 511.26 387.25 513.826 387.554C515.726 387.704 517.633 387.743 519.537 387.669Z" fill="#131F2D"/>
<path d="M503.283 288.382C503.283 288.382 537.437 312.077 541.719 322.865C546.001 333.653 543.229 336.375 531.151 333.985C519.074 331.595 511.269 335.963 506.74 340.572C502.211 345.181 483.28 339.213 477.307 342.534C471.334 345.855 436.169 316.51 442.499 308.615C448.83 300.72 503.283 288.382 503.283 288.382Z" fill="#016EB9"/>
<path d="M442.329 241.823C442.329 241.823 445.575 232.514 467.027 232.384C497.96 232.187 500.099 248.289 502.962 297.012C502.962 297.012 481.6 292.951 445.489 309.722C445.489 309.722 435.606 261.684 442.329 241.823Z" fill="#00A3FE"/>
<path d="M433.059 248.082L444.17 250.553C444.17 250.553 482.571 253.572 492.539 252.118C497.939 251.328 505.935 243.453 505.935 243.453C505.935 243.453 497.557 230.788 463.831 231.322C440.884 231.684 433.059 248.082 433.059 248.082Z" fill="#00A3FE"/>
<path d="M433.059 248.083C432.018 250.387 435.394 254.287 440.608 256.798C445.821 259.309 450.888 259.48 451.93 257.18C452.972 254.881 449.6 250.976 444.382 248.46C439.163 245.944 434.101 245.773 433.059 248.083Z" fill="#131F2D"/>
<path d="M501.285 303.241L488.735 292.529C503.504 276.11 497.234 250.624 497.108 250.317L504.013 245.22C507.364 249.507 518.475 271.566 501.285 303.241Z" fill="#EF6343"/>
<path d="M500.837 304.448C501.921 302.203 502.742 299.839 503.283 297.404C503.283 297.404 496.092 291.149 495.191 291.471C493.118 292.221 489.364 294.616 487.306 295.401C486.41 295.743 483.486 297.097 483.713 298.028C483.904 298.838 486.732 298.868 488.096 298.717C484.573 303.93 481.74 313.123 489.953 302.743C489.218 303.87 485.142 310.134 487.039 310.527C488.71 310.874 491.814 306.501 493.037 304.67H493.093C492.011 306.652 489.52 311.498 491.216 311.312C493.339 311.08 496.857 306.376 496.857 306.376C496.857 306.376 492.494 312.484 494.98 312.519C496.676 312.519 499.438 307.035 500.515 305.163C500.649 304.938 500.757 304.698 500.837 304.448V304.448Z" fill="#EF6343"/>
<path d="M483.295 307.437L483.904 292.342C483.698 292.367 461.053 294.767 451.749 279.949C449.588 276.594 448.2 272.801 447.683 268.845C447.166 264.888 447.534 260.867 448.759 257.069C449.474 254.825 436.612 247.323 436.008 249.3C431.675 263.54 432.194 276.351 439.339 287.733C445.438 297.439 455.553 303.875 468.591 306.351C477.941 308.092 477.991 308.605 483.295 307.437Z" fill="#FF7955"/>
<path d="M445.152 289.645C445.046 289.645 444.941 289.645 444.83 289.645C443.703 289.449 442.696 288.825 442.017 287.904C440.724 286.254 440.613 284.161 441.776 283.235C442.01 283.056 442.277 282.926 442.563 282.853C442.848 282.779 443.145 282.764 443.436 282.807C444.562 283.006 445.569 283.629 446.249 284.548C447.547 286.199 447.653 288.292 446.491 289.218C446.107 289.509 445.634 289.66 445.152 289.645V289.645ZM442.581 287.441C443.14 288.215 443.977 288.743 444.916 288.916C445.112 288.948 445.314 288.94 445.507 288.893C445.701 288.845 445.883 288.759 446.043 288.639C446.888 287.97 446.722 286.289 445.686 284.971C445.12 284.2 444.278 283.677 443.336 283.512C443.139 283.481 442.938 283.49 442.744 283.537C442.551 283.585 442.369 283.67 442.208 283.788C441.363 284.458 441.529 286.138 442.566 287.457L442.581 287.441Z" fill="#EC865C"/>
<path d="M479.244 294.421C479.244 294.421 483.572 289.021 487.673 288.735C491.774 288.448 497.199 291.084 494.693 291.784C492.74 292.246 490.742 292.496 488.735 292.529C488.735 292.529 496.107 292.775 495.277 294.426C494.446 296.076 488.045 295.799 488.045 295.799C488.045 295.799 496.781 296.77 495.488 298.089C494.195 299.407 487.562 298.607 487.562 298.607C487.562 298.607 495.654 299.83 494.104 301.324C492.554 302.819 487.426 300.273 486.601 301.923C485.776 303.573 484.739 309.642 479.762 308.021L479.244 294.421Z" fill="#FF7955"/>
<path d="M521.415 348.16C521.415 348.069 520.353 339.339 516.061 336.647L516.322 336.229C520.816 339.042 521.858 347.737 521.903 348.104L521.415 348.16Z" fill="#D78D5F"/>
<path d="M459.81 231.558C461.873 230.904 462.039 230.552 462.517 228.66L464.027 222.758L464.46 221.047L467.016 210.983L468.229 220.579L468.954 226.34L469.16 227.981C469.318 228.828 469.719 229.611 470.312 230.236C470.906 230.861 471.668 231.301 472.506 231.503C472.506 231.503 471.948 234.759 466.468 235.025C462.371 235.206 459.8 231.558 459.81 231.558Z" fill="#FF7955"/>
<path d="M468.944 226.335L468.637 222.999L464.053 224.005C464.103 224.046 464.284 224.252 464.37 224.312C465.719 225.329 467.284 226.021 468.944 226.335V226.335Z" fill="#131F2D"/>
<path d="M477.493 220.337C477.493 220.337 484.257 213.227 480.94 205.499C477.624 197.77 474.348 195.571 471.701 194.902C470.071 194.489 468.259 194.006 466.609 194.212C464.853 194.429 464.062 195.581 462.528 196.129C461.813 196.386 459.664 196.129 459.005 196.321C454.506 197.543 452.665 202.017 450.737 205.202C448.81 208.387 452.655 216.483 455.135 218.707C457.616 220.931 460.535 222.526 465.582 222.229C470.629 221.932 477.493 220.337 477.493 220.337Z" fill="#131F2D"/>
<path d="M479.797 215.408C480.797 209.199 476.622 203.364 470.472 202.375C464.323 201.386 458.529 205.617 457.53 211.826C456.531 218.035 460.706 223.87 466.855 224.86C473.004 225.849 478.798 221.617 479.797 215.408Z" fill="#FF7955"/>
<path d="M475.103 218.914C472.753 219.417 470.336 219.538 467.947 219.271C467.947 219.271 468.385 222.768 472.174 222.184C474.383 221.847 475.103 218.914 475.103 218.914Z" fill="#E9633E"/>
<path d="M468.31 212.161C468.353 212.138 468.389 212.102 468.411 212.057C468.434 212.013 468.441 211.963 468.434 211.914C468.426 211.865 468.403 211.82 468.368 211.785C468.333 211.749 468.288 211.726 468.239 211.718C467.687 211.585 467.105 211.643 466.59 211.882C466.075 212.122 465.656 212.528 465.401 213.036C465.369 213.09 465.36 213.153 465.375 213.214C465.39 213.274 465.428 213.326 465.481 213.358C465.535 213.387 465.597 213.395 465.657 213.381C465.716 213.367 465.768 213.332 465.804 213.283C466.446 212.667 467.274 212.281 468.159 212.186C468.21 212.196 468.264 212.187 468.31 212.161V212.161Z" fill="#080435"/>
<path d="M467.026 215.11C467.122 215.663 467.529 216.055 467.932 215.985C468.151 215.899 468.328 215.733 468.429 215.521C468.53 215.309 468.547 215.067 468.475 214.843C468.375 214.284 467.972 213.892 467.57 213.967C467.167 214.043 466.926 214.576 467.026 215.11Z" fill="#080435"/>
<path d="M476.779 211.587C476.815 211.583 476.849 211.571 476.88 211.551C476.91 211.532 476.936 211.507 476.955 211.476C476.972 211.45 476.984 211.421 476.989 211.39C476.995 211.36 476.994 211.328 476.988 211.298C476.981 211.268 476.969 211.239 476.951 211.213C476.934 211.188 476.911 211.166 476.885 211.149C476.427 210.816 475.869 210.647 475.303 210.67C474.737 210.692 474.195 210.906 473.765 211.275C473.715 211.313 473.682 211.369 473.673 211.431C473.663 211.493 473.678 211.556 473.715 211.607C473.754 211.654 473.809 211.684 473.869 211.694C473.929 211.703 473.99 211.69 474.042 211.657C474.87 211.337 475.781 211.3 476.633 211.552C476.678 211.576 476.728 211.588 476.779 211.587V211.587Z" fill="#080435"/>
<path d="M474.479 213.821C474.359 214.374 474.585 214.893 474.983 214.978C475.38 215.064 475.803 214.681 475.924 214.128C476.044 213.574 475.813 213.056 475.42 212.971C475.028 212.885 474.6 213.262 474.479 213.821Z" fill="#080435"/>
<path d="M459.468 216.402C460.846 217.253 462.487 217.021 463.096 215.874C463.705 214.727 463.096 213.111 461.737 212.256C460.378 211.401 458.718 211.637 458.104 212.759C457.49 213.881 458.089 215.547 459.468 216.402Z" fill="#FF7955"/>
<path d="M471.858 200.854C471.858 200.854 477.705 203.134 479.456 206.525C481.208 209.917 475.124 206.938 473.518 208.498C471.913 210.057 471.752 208.065 468.376 208.367C464.999 208.669 465.11 212.115 462.609 211.205C460.108 210.294 455.498 210.551 454.909 209.569C454.321 208.588 461.451 197.347 471.858 200.854Z" fill="#131F2D"/>
<path d="M452.287 199.647C452.287 199.647 452.533 196.94 449.142 196.18C445.75 195.42 435.932 200.205 436.224 208.337C436.516 216.468 429.914 217.771 433.305 222.426C436.697 227.08 439.384 225.581 443.058 224.584C446.731 223.588 448.638 229.883 451.985 226.678C455.331 223.472 453.177 217.434 449.262 214.601C445.347 211.768 444.472 208.266 446.52 205.418C448.568 202.57 452.04 201.81 452.287 199.647Z" fill="#131F2D"/>
<path d="M479.989 196.225C481.499 195.108 487.537 194.716 490.904 201.504C494.27 208.291 488.805 213.273 493.606 215.643C498.407 218.013 496.978 222.843 492.6 222.461C488.222 222.078 489.319 227.065 485.675 227.88C482.032 228.695 477.161 225.948 478.686 222.345C480.21 218.742 484.825 215.049 483.456 206.505C482.686 201.831 478.057 197.634 479.989 196.225Z" fill="#131F2D"/>
<path d="M462.457 195.294C462.368 195.294 462.282 195.26 462.217 195.2C462.151 195.139 462.111 195.056 462.105 194.967C462.078 193.962 462.355 192.973 462.901 192.13C463.448 191.286 464.237 190.628 465.164 190.242C465.251 190.209 465.348 190.211 465.433 190.247C465.519 190.284 465.587 190.352 465.622 190.438C465.64 190.481 465.65 190.527 465.65 190.573C465.65 190.619 465.641 190.665 465.623 190.707C465.605 190.75 465.579 190.789 465.546 190.821C465.513 190.854 465.474 190.879 465.431 190.896C464.636 191.22 463.959 191.78 463.491 192.499C463.022 193.218 462.785 194.064 462.809 194.922C462.812 194.968 462.806 195.014 462.79 195.058C462.775 195.102 462.751 195.142 462.721 195.177C462.69 195.211 462.652 195.239 462.611 195.26C462.569 195.28 462.524 195.291 462.477 195.294H462.457Z" fill="#131F2D"/>
<path d="M461.406 195.536C461.349 195.537 461.293 195.523 461.243 195.497C461.193 195.471 461.15 195.432 461.119 195.385C461.079 195.335 460.314 194.318 458.301 195.204C458.258 195.229 458.209 195.246 458.159 195.251C458.109 195.257 458.058 195.252 458.01 195.236C457.962 195.221 457.918 195.195 457.88 195.162C457.843 195.128 457.813 195.087 457.793 195.04C457.772 194.994 457.762 194.944 457.762 194.894C457.763 194.844 457.773 194.794 457.794 194.748C457.815 194.702 457.846 194.661 457.884 194.628C457.921 194.594 457.966 194.57 458.014 194.555C460.596 193.428 461.652 194.922 461.698 194.987C461.727 195.026 461.748 195.07 461.759 195.116C461.77 195.163 461.771 195.212 461.763 195.259C461.754 195.306 461.736 195.351 461.709 195.391C461.683 195.431 461.648 195.465 461.607 195.491C461.546 195.525 461.476 195.541 461.406 195.536Z" fill="#131F2D"/>
<path d="M432.647 214.335C432.596 214.335 432.545 214.324 432.499 214.302C432.453 214.281 432.412 214.249 432.38 214.209C432.348 214.174 432.324 214.132 432.309 214.088C432.294 214.043 432.288 213.996 432.292 213.948C432.295 213.901 432.309 213.855 432.331 213.814C432.353 213.772 432.383 213.735 432.42 213.706C433.628 212.674 433.93 211.069 434.287 209.031C434.76 206.435 435.344 203.204 438.177 199.923C443.26 194.041 450.118 196.779 450.189 196.804C450.274 196.841 450.342 196.911 450.377 196.997C450.413 197.083 450.414 197.18 450.38 197.267C450.343 197.353 450.274 197.421 450.188 197.457C450.101 197.493 450.004 197.493 449.917 197.458C449.655 197.352 443.456 194.892 438.71 200.381C436.003 203.516 435.44 206.646 434.982 209.157C434.604 211.245 434.277 213.046 432.873 214.239C432.813 214.299 432.732 214.333 432.647 214.335Z" fill="#131F2D"/>
<path d="M495.418 221.776C495.356 221.776 495.296 221.759 495.242 221.728C495.188 221.697 495.143 221.653 495.111 221.6C495.085 221.559 495.067 221.513 495.059 221.465C495.051 221.416 495.054 221.367 495.066 221.32C495.078 221.272 495.1 221.228 495.131 221.19C495.161 221.151 495.199 221.12 495.242 221.097C496.49 220.372 497.124 219.497 497.124 218.501C497.124 216.624 494.88 214.475 492.802 213.293C491.292 212.442 491.941 210.897 492.666 209.106C493.672 206.686 494.87 203.667 492.555 200.215C488.585 194.283 480.448 196.995 480.362 197.025C480.273 197.055 480.176 197.048 480.092 197.007C480.008 196.965 479.944 196.892 479.914 196.803C479.884 196.715 479.891 196.618 479.932 196.534C479.974 196.45 480.047 196.386 480.136 196.356C480.221 196.33 488.866 193.437 493.144 199.823C495.66 203.586 494.306 206.932 493.32 209.383C492.58 211.199 492.238 212.171 493.149 212.694C494.885 213.7 497.824 216.03 497.829 218.511C497.829 219.779 497.079 220.855 495.594 221.716C495.542 221.751 495.481 221.771 495.418 221.776V221.776Z" fill="#131F2D"/>
<path d="M814.096 61.202C813.477 61.202 813.09 61.1668 813.09 61.1668L813.13 60.7592C813.206 60.7592 820.809 61.4939 826.757 55.9287L827.014 56.2357C822.233 60.719 816.391 61.202 814.096 61.202Z" fill="#B8C1C9"/>
<path d="M822.893 65.8612C820.86 65.5927 818.977 64.6418 817.554 63.1642C816.952 62.5483 816.467 61.829 816.12 61.0408L816.482 60.8848C816.482 60.925 818.022 64.7039 822.949 65.4536L822.893 65.8612Z" fill="#B8C1C9"/>
<path d="M695.821 120.823H681.615L680.135 61.7402C681.887 60.9551 683.758 60.4703 685.671 60.3062C688.574 60.0323 691.492 59.9432 694.406 60.0395L695.821 120.823Z" fill="#D5D6DA"/>
<path d="M732.249 120.824H695.821L694.417 60.0396L732.249 61.7403V120.824Z" fill="#B8C1C9"/>
<path d="M719.034 120.824H708.421V47.5205C710.088 47.0653 711.792 46.7655 713.514 46.6249C715.945 46.4727 718.384 46.4727 720.816 46.6249L719.034 120.824Z" fill="#D5D6DA"/>
<path d="M746.234 120.823H719.03L720.816 46.6196L746.234 47.5153V120.823Z" fill="#657285"/>
<path d="M744.492 120.824H736.506L725.435 65.6404C726.548 65.3738 727.684 65.217 728.827 65.1724C730.372 65.1215 731.918 65.2789 733.421 65.6404L744.492 120.824Z" fill="#D5D6DA"/>
<path d="M764.948 120.824H744.472L733.381 65.6401L753.686 68.6944L764.948 120.824Z" fill="#B8C1C9"/>
<path d="M680.377 69.4996L680.271 69.1222C682.355 68.605 684.502 68.3948 686.647 68.4983C689.898 68.6995 694.321 67.5774 694.366 67.5674L694.467 67.9448C694.421 67.9448 689.938 69.092 686.627 68.8857C684.525 68.7844 682.419 68.9912 680.377 69.4996V69.4996Z" fill="#B8C1C9"/>
<path d="M708.451 53.3173L708.391 52.9248C708.467 52.9248 715.849 51.7877 720.705 52.9248L720.614 53.3073C715.834 52.1852 708.527 53.3022 708.451 53.3173Z" fill="#B8C1C9"/>
<path d="M720.484 57.2421C716.499 55.3803 708.522 56.0697 708.442 56.0747L708.407 55.6822C708.739 55.6822 716.569 54.9828 720.645 56.8848L720.484 57.2421Z" fill="#B8C1C9"/>
<path d="M708.457 111.64L708.391 111.253C708.688 111.203 715.718 110.05 719.321 111.253L719.195 111.625C715.683 110.453 708.527 111.63 708.457 111.64Z" fill="#B8C1C9"/>
<path d="M708.452 113.653L708.396 113.266C708.467 113.266 715.235 112.335 719.256 113.266L719.165 113.648C715.215 112.732 708.517 113.648 708.452 113.653Z" fill="#B8C1C9"/>
<path d="M726.668 71.9804L726.593 71.5879C726.799 71.5426 731.761 70.4507 734.684 71.5879L734.549 71.9653C731.731 70.8683 726.719 71.9703 726.668 71.9804Z" fill="#B8C1C9"/>
<path d="M727 73.6861L726.935 73.2937C727.126 73.2534 731.69 72.4282 734.987 73.2937L734.891 73.6861C731.675 72.8207 727.051 73.6861 727 73.6861Z" fill="#B8C1C9"/>
<path d="M734.523 111.107L734.462 110.71C734.659 110.679 739.349 109.874 742.514 110.71L742.423 111.102C739.334 110.287 734.573 111.102 734.523 111.107Z" fill="#B8C1C9"/>
<path d="M742.867 113.241C740.263 112.711 737.58 112.711 734.976 113.241L734.891 112.848C737.547 112.308 740.285 112.308 742.942 112.848L742.867 113.241Z" fill="#B8C1C9"/>
<path d="M817.961 107.429C817.961 107.429 817.705 108.134 817.136 109.301L817.091 109.402C815.518 112.579 813.535 115.536 811.193 118.197C810.065 119.417 808.672 120.362 807.122 120.96V120.96H807.092C806.739 121.106 806.377 121.236 806.005 121.357C800.721 123.113 793.465 122.736 787.768 120.829L786.762 120.482C786.272 120.294 785.799 120.098 785.343 119.893C784.01 119.292 782.788 118.471 781.73 117.463L781.367 117.1C777.417 112.984 777.487 107.429 777.487 107.429H817.961Z" fill="#D5D6DA"/>
<path d="M819.26 99.0261V105.104C819.26 108.868 809.493 111.918 797.445 111.918C785.398 111.918 775.626 108.868 775.626 105.104V99.0261C775.626 97.114 781.252 95.4787 789.213 94.8044C791.729 94.583 794.522 94.4673 797.43 94.4673C809.493 94.4673 819.26 96.5052 819.26 99.0261Z" fill="#B8C1C9"/>
<path d="M819.26 99.0261C819.244 99.2356 819.182 99.439 819.08 99.6223C818.977 99.8056 818.836 99.9645 818.666 100.088C816.377 102.101 807.746 103.61 797.445 103.61C794.557 103.61 791.799 103.494 789.283 103.278C781.277 102.599 775.626 100.963 775.626 99.0462C775.626 97.1291 781.252 95.4988 789.213 94.8246C791.729 94.6032 794.522 94.4875 797.43 94.4875C809.493 94.4673 819.26 96.5052 819.26 99.0261Z" fill="#657285"/>
<path d="M798.759 36.018C796.665 37.4571 795.654 37.1049 795.171 36.1488C794.687 35.1928 794.919 33.9801 797.012 32.5461C800.827 29.9245 803.554 30.3975 803.554 30.3975C803.554 30.3975 802.628 33.3612 798.759 36.018Z" fill="#B8C1C9"/>
<path d="M798.654 54.4141C797.074 56.5677 796.017 56.618 795.293 55.8934C794.568 55.1688 794.462 53.9411 796.043 51.7875C798.926 47.8677 801.623 47.2891 801.623 47.2891C801.623 47.2891 801.578 50.439 798.654 54.4141Z" fill="#B8C1C9"/>
<path d="M797.687 102.296L797.229 102.251C797.229 102.166 797.813 93.8531 795.422 81.6813C792.191 65.4053 785.373 50.0538 775.465 36.7424L775.812 36.3901C785.775 49.7758 792.629 65.2136 795.875 81.5806C798.276 93.8129 797.692 102.211 797.687 102.296Z" fill="#B8C1C9"/>
<path d="M788.127 57.5839L787.739 57.2971C796.737 40.8633 791.312 20.9122 791.262 20.711L791.7 20.5449C791.75 20.7462 797.24 40.9337 788.127 57.5839Z" fill="#B8C1C9"/>
<path d="M781.227 48.869C778.266 48.798 775.396 47.8333 772.994 46.1015L773.251 45.6587C773.296 45.6939 777.815 49.1809 783.315 48.1343L783.391 48.6375C782.678 48.7816 781.954 48.8591 781.227 48.869Z" fill="#B8C1C9"/>
<path d="M796.912 90.1904C787.477 88.9324 779.803 83.5535 774.187 74.1943C774.052 73.9591 773.906 73.7307 773.749 73.51C773.764 73.5129 773.779 73.5129 773.794 73.51L773.94 73.0068C774.071 73.0572 774.152 73.188 774.559 73.8622C780.125 83.0905 787.643 88.3991 796.962 89.6369L796.912 90.1904Z" fill="#B8C1C9"/>
<path d="M783.572 84.4037L783.13 84.2628C784.755 77.2183 780.744 66.873 780.704 66.7673L781.122 66.5459C781.873 68.5601 782.493 70.6207 782.979 72.7149C783.744 75.9604 784.448 80.6148 783.572 84.4037Z" fill="#B8C1C9"/>
<path d="M775.157 33.7488C777.588 36.31 777.794 37.744 777.17 38.5692C776.546 39.3944 775.293 39.3039 772.863 36.7377C768.435 32.0682 767.448 28.3145 767.448 28.3145C767.448 28.3145 770.659 29.0088 775.157 33.7488Z" fill="#B8C1C9"/>
<path d="M774.207 44.3657C777.186 45.9558 777.73 47.249 777.357 48.2603C776.985 49.2717 775.757 49.6189 772.778 48.0339C767.353 45.1406 765.446 41.9102 765.446 41.9102C765.446 41.9102 768.702 41.4322 774.207 44.3657Z" fill="#B8C1C9"/>
<path d="M782.072 65.0208C783.184 67.5367 782.826 68.7091 781.981 69.2173C781.136 69.7255 780.119 69.3884 779.007 66.8675C776.994 62.2684 777.538 59.1235 777.538 59.1235C777.538 59.1235 780.018 60.3563 782.072 65.0208Z" fill="#B8C1C9"/>
<path d="M785.906 40.3098C786.459 43.0723 785.87 44.0988 784.945 44.3353C784.019 44.5718 783.103 43.973 782.549 41.2055C781.543 36.1737 782.73 33.2754 782.73 33.2754C782.73 33.2754 784.879 35.1975 785.906 40.3098Z" fill="#B8C1C9"/>
<path d="M789.647 81.5557C789.516 84.3936 788.706 85.1836 787.755 85.1232C786.803 85.0629 786.074 84.1722 786.21 81.3343C786.451 76.1717 788.288 73.7866 788.288 73.7866C788.288 73.7866 789.893 76.3176 789.647 81.5557Z" fill="#B8C1C9"/>
<path d="M776.26 73.716C777.81 75.8998 777.674 77.1276 776.94 77.837C776.205 78.5465 775.153 78.4711 773.608 76.2822C770.785 72.3021 770.75 69.0918 770.75 69.0918C770.75 69.0918 773.397 69.6604 776.26 73.716Z" fill="#B8C1C9"/>
<path d="M792.66 18.3665C793.425 22.09 792.902 23.3983 791.976 23.6649C791.05 23.9316 790.074 23.0309 789.314 19.3074C787.925 12.5246 788.926 8.77588 788.926 8.77588C788.926 8.77588 791.251 11.483 792.66 18.3665Z" fill="#B8C1C9"/>
<path d="M798.019 103.011C798.019 103.011 786.053 50.7706 774.056 55.103C762.059 59.4353 788.705 88.031 791.794 103.373L798.019 103.011Z" fill="#657285"/>
<path d="M796.258 100.656C796.258 100.656 777.951 58.7366 766.528 64.9961C755.105 71.2556 785.147 89.8934 790.083 102.297L796.258 100.656Z" fill="#B8C1C9"/>
<path d="M792.726 101.652C786.471 85.1432 769.96 70.7472 769.794 70.6013L770.096 70.0981C770.262 70.2441 786.878 84.7356 793.194 101.386L792.726 101.652Z" fill="#B8C1C9"/>
<path d="M830.959 71.0139C826.677 77.4647 834.175 85.8828 826.984 90.0039C819.793 94.1249 820.009 92.7714 819.31 98.6133C819.332 98.8937 819.284 99.1752 819.172 99.4331C819.06 99.691 818.886 99.9174 818.666 100.093C816.376 102.105 807.746 103.615 797.445 103.615C794.557 103.615 791.799 103.499 789.283 103.283C788.347 100.546 788.327 97.5784 789.228 94.8294C789.707 93.4224 790.41 92.1021 791.311 90.9197C796.665 83.7594 800.958 85.1885 799.73 71.9347C798.502 58.681 813.82 64.3871 817.644 59.939C821.469 55.4909 824.075 50.444 830.959 52.3913C837.843 54.3386 835.252 64.5682 830.959 71.0139Z" fill="#D5D6DA"/>
<path d="M800.641 104.068L800.198 103.917C800.254 103.691 806.131 80.8361 832.746 53.5186L833.048 53.9261C806.534 81.138 800.696 103.841 800.641 104.068Z" fill="#B8C1C9"/>
<path d="M808.753 75.2706C802.478 75.0039 799.695 72.6289 799.595 72.5283L799.866 72.1006C799.897 72.1257 802.654 74.4756 808.773 74.7322L808.753 75.2706Z" fill="#B8C1C9"/>
<path d="M812.557 79.1103C810.041 78.0184 808.028 74.9389 806.649 70.199C806.007 67.9538 805.559 65.6575 805.311 63.3356L805.768 63.2803C805.768 63.4061 806.991 76.1013 812.718 78.6071L812.557 79.1103Z" fill="#B8C1C9"/>
<path d="M819.185 71.3963C818.46 71.3963 818.038 71.351 818.018 71.351L818.063 70.8126C821.026 70.972 823.99 70.4913 826.751 69.4034C829.512 68.3155 832.007 66.6458 834.065 64.5078L834.372 64.9104C832.402 66.9501 830.043 68.5749 827.434 69.6888C824.826 70.8027 822.021 71.3833 819.185 71.3963V71.3963Z" fill="#B8C1C9"/>
<path d="M829.536 77.4796C827.094 77.0927 824.871 75.843 823.271 73.9573C822.554 73.1356 821.983 72.1981 821.58 71.1848L822.003 70.9785C822.66 72.5362 823.703 73.901 825.033 74.945C826.363 75.9889 827.937 76.6775 829.606 76.9462L829.536 77.4796Z" fill="#B8C1C9"/>
<path d="M817.051 96.8326C810.212 96.8326 805.251 91.9165 805.195 91.8612L805.497 91.4536C805.558 91.514 811.702 97.5974 819.678 96.0426L819.753 96.5458C818.864 96.7286 817.959 96.8247 817.051 96.8326V96.8326Z" fill="#B8C1C9"/>
<path d="M810.262 95.0105L809.875 94.7288C811.239 92.1726 814.404 88.7359 821.826 86.8943C824.554 86.2245 827.347 85.8517 830.155 85.7822V86.3206C830.004 86.3206 814.842 86.4263 810.262 95.0105Z" fill="#B8C1C9"/>
<path d="M835.157 127.959L678.193 129.584V119.898H833.763L835.157 127.959Z" fill="#B8C1C9"/>
<path d="M442.374 420.96C442.374 420.96 442.696 428.004 447.521 429.922C452.347 431.839 466.241 433.328 461.159 437.972C458.24 440.644 444.2 439.245 440.245 439.331C436.29 439.417 432.616 441.208 429.622 438.627C426.331 435.779 429.265 421.227 429.265 421.227C429.265 421.227 432.712 422.932 435.807 422.792C440.2 422.59 442.374 420.96 442.374 420.96Z" fill="#131F2D"/>
<path d="M521.877 416.904C521.877 416.904 522.275 423.948 527.121 425.81C531.967 427.672 545.876 429.015 540.844 433.72C537.955 436.422 523.9 435.174 519.95 435.3C516 435.426 512.341 437.262 509.317 434.711C505.996 431.904 508.774 417.316 508.774 417.316C508.774 417.316 512.236 418.987 515.315 418.826C519.719 418.554 521.877 416.904 521.877 416.904Z" fill="#131F2D"/>
<path d="M518.651 422.746C522.581 422.297 526.186 420.35 528.717 417.311C531.247 414.271 532.509 410.374 532.238 406.428C529.053 360.09 525.284 334.121 508.934 315.398C499.816 304.957 483.804 291.024 441.659 285.655C425.616 283.612 421.128 280.185 404.522 280.623C377.448 281.368 382.707 285.242 382.707 285.242C366.101 329.019 398.262 331.882 421.792 331.032C422.572 331.001 423.352 330.981 424.137 330.961C438.398 330.634 463.931 332.063 474.695 345.332C483.215 355.843 489.792 371.059 495.508 411.284C496.03 414.995 497.979 418.356 500.942 420.652C503.904 422.948 507.646 423.997 511.37 423.576L518.651 422.746Z" fill="#364154"/>
<path d="M455.216 427.3C476.517 383.111 485.912 342.519 470.267 323.212C460.202 310.809 445.931 302.018 427.835 297.092C414.923 293.57 399.952 292.03 383.351 292.488C356.273 293.233 343.884 291.024 343.884 291.024C326.719 346.731 405.493 328.425 428.238 349.569C438.146 358.782 424.771 374.476 426.225 420.014C426.502 427.783 451.643 434.707 455.216 427.3Z" fill="#364154"/>
<path d="M478.218 349.931H477.906C478.601 340.255 480.422 314.563 427.786 297.273L427.886 296.977C450.098 304.273 465.165 313.893 472.673 325.572C479.23 335.752 478.56 345.322 478.218 349.931Z" fill="#131F2D"/>
<path d="M344.12 218.4C344.12 218.4 360.852 194.751 387.9 196.215C414.948 197.679 435.802 209.122 439.732 285.399C439.732 285.399 401.814 287.099 359.106 312.485C351.915 316.762 339.43 311.393 338.977 302.98C338.072 286.224 332.677 256.717 344.12 218.4Z" fill="#657285"/>
<path d="M321.556 212.659L352.962 226.864C352.962 226.864 402.182 232.69 415.306 230.557C428.43 228.423 432.184 217.952 432.184 217.952C432.184 217.952 418.476 201.85 394.84 197.206C392.553 196.748 390.243 196.412 387.921 196.2C383.895 195.843 380.045 195.47 376.105 195.888C337.594 199.984 321.556 212.659 321.556 212.659Z" fill="#657285"/>
<g opacity="0.3">
<path opacity="0.3" d="M348.438 272.286H348.177C347.075 272.16 345.751 271.279 344.73 269.946C343.159 267.933 342.792 265.664 343.889 264.778C344.075 264.637 344.288 264.534 344.514 264.477C344.741 264.42 344.977 264.41 345.208 264.446C346.31 264.572 347.633 265.452 348.66 266.786C350.225 268.799 350.597 271.068 349.495 271.954C349.192 272.184 348.818 272.302 348.438 272.286V272.286ZM344.941 265.065C344.709 265.056 344.482 265.127 344.297 265.266C343.502 265.905 343.934 267.863 345.238 269.533C346.149 270.701 347.331 271.521 348.257 271.626C348.402 271.653 348.551 271.649 348.694 271.616C348.838 271.583 348.973 271.522 349.092 271.435C349.888 270.796 349.455 268.839 348.151 267.168C347.241 266.001 346.063 265.181 345.132 265.075C345.069 265.067 345.005 265.063 344.941 265.065V265.065Z" fill="#EC865C"/>
</g>
<path d="M383.045 192.532L387.121 185.271L388.303 183.158L395.283 170.734L392.948 184.109L391.544 192.16L391.101 194.676C390.799 196.402 391.756 196.99 392.692 198.751C393.069 199.466 395.535 203.839 391.484 204.669C386.452 205.705 378.496 200.694 376.105 195.898C376.131 195.903 381.726 194.877 383.045 192.532Z" fill="#FF7955"/>
<path d="M406.892 168.052C406.875 170.56 406.339 173.037 405.317 175.328C403.606 179.187 401.684 168.344 401.684 168.344L406.892 168.052Z" fill="#131F2D"/>
<path d="M405.524 176.516C406.173 168.469 401.339 161.514 394.726 160.981C388.114 160.447 382.227 166.538 381.578 174.585C380.929 182.632 385.764 189.587 392.376 190.121C398.989 190.654 404.875 184.563 405.524 176.516Z" fill="#FF7955"/>
<path d="M382.209 170.392L388.016 171.051C388.648 171.126 389.289 171.057 389.891 170.848C390.492 170.64 391.038 170.298 391.489 169.849C393.049 168.269 394.654 167.635 399.907 169.003C406.56 170.739 411.864 167.68 413.358 164.293C414.853 160.907 411.98 157.631 408.236 158.613C404.492 159.594 406.857 155.684 403.707 154.522C397.834 152.343 395.655 156.806 390.759 155.558C384.303 153.923 371.581 156.338 374.601 169.109L382.209 170.392Z" fill="#131F2D"/>
<path d="M394.326 175.107C394.376 175.092 394.42 175.061 394.451 175.02C394.482 174.978 394.499 174.927 394.499 174.875C394.499 174.823 394.482 174.773 394.451 174.731C394.42 174.689 394.376 174.659 394.326 174.644C393.778 174.437 393.176 174.42 392.617 174.595C392.058 174.77 391.574 175.127 391.242 175.61C391.202 175.662 391.184 175.727 391.192 175.792C391.199 175.856 391.231 175.916 391.282 175.957C391.334 175.994 391.397 176.01 391.46 176.004C391.523 175.997 391.581 175.968 391.624 175.922C392.364 175.374 393.265 175.089 394.185 175.112C394.232 175.125 394.281 175.124 394.326 175.107Z" fill="#080435"/>
<path d="M392.631 177.959C392.661 178.548 393.023 179.001 393.446 178.966C393.869 178.93 394.186 178.462 394.156 177.869C394.125 177.275 393.758 176.822 393.34 176.862C392.923 176.903 392.601 177.376 392.631 177.959Z" fill="#080435"/>
<path d="M403.279 176.334C403.31 176.334 403.341 176.325 403.368 176.309C403.396 176.293 403.419 176.271 403.435 176.244C403.469 176.192 403.488 176.132 403.488 176.07C403.488 176.008 403.469 175.948 403.435 175.897C403.294 175.709 403.116 175.552 402.912 175.436C402.707 175.321 402.481 175.248 402.248 175.224C402.014 175.2 401.778 175.225 401.555 175.296C401.331 175.368 401.125 175.485 400.949 175.64C400.903 175.68 400.87 175.734 400.856 175.793C400.842 175.853 400.846 175.915 400.868 175.972C400.877 175.996 400.892 176.019 400.91 176.037C400.928 176.055 400.95 176.069 400.975 176.079C400.999 176.088 401.025 176.091 401.051 176.089C401.077 176.088 401.102 176.08 401.125 176.068C401.464 175.954 401.824 175.914 402.179 175.951C402.535 175.987 402.879 176.099 403.188 176.279C403.212 176.306 403.244 176.325 403.279 176.334V176.334Z" fill="#080435"/>
<path d="M400.561 178.347C400.452 178.565 400.43 178.816 400.499 179.049C400.569 179.283 400.724 179.481 400.934 179.605C401.331 179.746 401.809 179.414 402.001 178.86C402.112 178.643 402.137 178.392 402.068 178.158C402 177.924 401.844 177.725 401.633 177.602C401.251 177.431 400.773 177.768 400.561 178.347Z" fill="#080435"/>
<path d="M374.605 169.108C374.605 169.108 376.673 178.518 382.098 180.374C382.098 180.374 379.013 172.867 389.349 170.99C389.349 170.99 380.935 167.689 374.605 169.108Z" fill="#131F2D"/>
<path d="M381.44 175.554C381.656 175.797 381.919 175.995 382.212 176.136C382.506 176.277 382.824 176.359 383.15 176.376C383.475 176.393 383.8 176.346 384.107 176.237C384.414 176.128 384.696 175.959 384.937 175.74C385.372 175.243 385.594 174.596 385.555 173.937C385.516 173.278 385.22 172.661 384.731 172.218C384.513 171.972 384.249 171.772 383.953 171.63C383.657 171.487 383.336 171.405 383.009 171.388C382.681 171.37 382.353 171.418 382.044 171.529C381.735 171.64 381.451 171.811 381.208 172.032C380.777 172.532 380.559 173.181 380.603 173.84C380.646 174.499 380.947 175.115 381.44 175.554V175.554Z" fill="#FF7955"/>
<path d="M389.349 170.991C389.349 170.991 387.04 177.995 388.192 179.671C389.344 181.346 398.76 184.038 403.59 183.284C403.168 185.518 401.96 187.528 400.184 188.949C398.408 190.369 396.182 191.107 393.909 191.027C392.352 190.953 390.821 190.613 389.38 190.021V190.021C386.36 188.783 383.633 186.811 382.979 183.606C382.777 182.634 385.102 177.416 385.102 177.416C385.102 177.416 386.224 174.302 384.74 172.224C384.715 172.209 387.266 170.744 389.349 170.991Z" fill="#131F2D"/>
<path d="M407.732 157.908C407.489 157.887 407.253 157.818 407.037 157.705C406.821 157.592 406.63 157.438 406.474 157.251C406.318 157.064 406.2 156.848 406.127 156.615C406.055 156.383 406.029 156.138 406.051 155.896L406.378 155.936C406.378 155.991 406.242 157.274 407.797 157.566L407.732 157.908Z" fill="#131F2D"/>
<path d="M352.534 230.29C352.534 230.29 363.851 286.319 376.104 298.043C388.358 309.767 338.665 291.205 338.665 291.205V255.067L343.798 237.491L352.534 230.29Z" fill="#FF7955"/>
<path d="M390.718 412.174C390.718 412.174 394.019 423.647 399.555 428.986C403.188 432.508 412.804 439.155 407.027 442.572C402.413 445.299 391.795 437.318 388.444 435.426C385.092 433.534 379.899 429.796 380.432 425.957C381.544 417.996 379.587 408.441 379.587 408.441L390.718 412.174Z" fill="#131F2D"/>
<path d="M355.302 407.651C355.302 407.651 354.452 419.566 357.778 426.51C359.972 431.084 366.705 440.695 360.113 441.867C354.844 442.798 347.638 431.592 345.147 428.638C342.656 425.685 339.109 420.371 340.915 416.96C344.704 409.89 346.154 400.249 346.154 400.249L355.302 407.651Z" fill="#131F2D"/>
<path d="M359.685 415.41C417.555 364.246 409.504 327.238 398.815 313.767C386.386 298.129 368.466 286.842 342.913 284.145C336.753 283.514 330.558 283.302 324.369 283.511C322.544 283.578 320.754 284.033 319.118 284.844C317.481 285.656 316.036 286.805 314.878 288.218C313.72 289.63 312.875 291.272 312.4 293.035C311.924 294.799 311.829 296.643 312.121 298.446L315.517 320.168H315.467C326.035 318.538 358.553 317.521 369.221 333.673C371.44 337.034 335.354 393.35 338.137 402.226C341.302 412.27 354.029 420.411 359.685 415.41Z" fill="#00A3FE"/>
<path d="M385.118 418.53C386.854 418.298 388.525 417.714 390.027 416.814C391.529 415.913 392.832 414.715 393.854 413.293C394.876 411.871 395.597 410.254 395.972 408.543C396.346 406.832 396.367 405.063 396.033 403.344C392.943 387.126 386.3 359.708 374.133 339.943C367.228 328.732 357.31 319.026 344.659 311.091C335.098 305.108 323.982 300.106 311.562 296.232C290.9 289.781 277.037 292.911 277.037 292.911L268.482 310.175C268.628 310.175 267.586 326.564 291.952 337.8C305.393 343.999 330.982 345.473 343.904 364.398C353.128 377.908 358.437 396.747 361.119 410.046C361.725 413.096 363.462 415.804 365.983 417.626C368.503 419.448 371.62 420.249 374.706 419.868L385.118 418.53Z" fill="#00A3FE"/>
<path d="M390.679 381.128C388.394 370.695 385.194 360.483 381.117 350.61C375.013 335.948 364.416 317.023 348.62 310.12L348.776 309.757C357.567 313.597 370.374 323.771 381.485 350.464C385.569 360.359 388.779 370.593 391.076 381.048L390.679 381.128Z" fill="#131F2D"/>
<path d="M361.979 413.206C358.86 390.563 349.233 374.024 349.132 373.863L349.475 373.656C349.575 373.822 359.242 390.412 362.372 413.151L361.979 413.206Z" fill="#131F2D"/>
<path d="M286.19 217.092C286.19 217.092 296.254 199.707 319.483 205.041C342.711 210.375 352.192 228.393 353.828 285.902C353.828 285.902 323.836 293.042 271.254 320.042C264.969 323.273 266.967 300.67 270.399 289.162C276.77 267.782 275.351 234.859 286.19 217.092Z" fill="#016EB9"/>
<path d="M260.667 222.179L284.555 226.708C284.555 226.708 326.322 239.182 338.017 239.287C349.711 239.393 354.547 230.733 354.547 230.733C354.547 230.733 345.117 214.571 325.361 206.943C323.449 206.203 321.499 205.568 319.518 205.041C316.096 204.125 312.614 203.325 309.132 203.285C269.67 202.842 260.667 222.179 260.667 222.179Z" fill="#016EB9"/>
<path d="M260.667 222.179C260.164 224.081 265.16 227.256 271.853 229.264C278.546 231.271 284.388 231.367 284.907 229.465C285.425 227.563 280.413 224.393 273.72 222.38C267.027 220.368 261.17 220.277 260.667 222.179Z" fill="#131F2D"/>
<path d="M309.137 203.3C310.392 203.408 311.653 203.177 312.788 202.632C313.924 202.086 314.892 201.247 315.593 200.2L320.087 193.493L321.39 191.546L329.059 180.093L325.703 192.844L323.69 200.492L323.116 202.676C322.892 203.532 322.991 204.44 323.394 205.228C323.796 206.016 324.475 206.628 325.3 206.948H325.33C325.985 208.684 326.694 212.095 322.553 212.599C317.686 213.192 310.953 208.12 309.102 203.29L309.137 203.3Z" fill="#FF7955"/>
<path d="M312.735 175.021C312.735 175.021 312.996 177.225 311.281 181.482C308.764 187.706 315.754 191.233 317.822 189.613C318.079 189.412 319 178.438 319 178.438L316.831 176.772L312.735 175.021Z" fill="#131F2D"/>
<path d="M320.112 193.277C320.112 193.347 320.112 193.417 320.112 193.493C319.609 197.72 323.68 200.512 323.68 200.512H323.71L325.723 192.864C324.465 192.104 322.643 191.224 321.41 191.566C320.746 191.722 320.268 192.235 320.112 193.277Z" fill="#131F2D"/>
<path d="M339.688 182.33C340.574 173.956 335.839 166.591 329.112 165.879C322.385 165.168 316.213 171.379 315.327 179.752C314.441 188.126 319.176 195.491 325.903 196.203C332.63 196.914 338.802 190.703 339.688 182.33Z" fill="#FF7955"/>
<path d="M333.633 169.959C333.241 170.382 334.282 178.398 319.77 178.604C305.257 178.81 315.814 162.286 326.412 163.111C341.715 164.309 342.772 174.905 340.89 178.458C339.008 182.01 333.633 169.959 333.633 169.959Z" fill="#131F2D"/>
<path d="M312.634 157.822C312.634 157.822 318.572 162.904 313.172 166.416C307.772 169.929 293.979 170.14 296.913 177.456C299.847 184.772 301.91 195.359 295.096 195.862C288.283 196.366 284.136 195.359 280.815 200.391C277.494 205.423 265.759 200.718 267.465 194.449C269.171 188.179 259.413 181.366 264.531 176.012C269.649 170.658 281.082 166.814 284.66 159.473C288.238 152.131 307.818 153.902 312.634 157.822Z" fill="#131F2D"/>
<path d="M321.597 176.304C321.597 176.304 315.055 181.839 316.369 188.441C316.369 188.441 313.4 184.31 313.48 182.906C313.561 181.502 315.03 176.566 315.03 176.566L321.597 176.304Z" fill="#131F2D"/>
<path d="M316.685 182.09C317.918 183.6 319.825 183.937 320.957 182.895C322.089 181.854 322.004 179.796 320.776 178.306C319.548 176.817 317.636 176.46 316.509 177.506C315.381 178.553 315.457 180.601 316.685 182.09Z" fill="#FF7955"/>
<path d="M335.55 191.571C332.903 190.746 331.525 187.495 332.456 184.325C332.911 182.687 333.997 181.296 335.475 180.456C336.002 180.162 336.582 179.976 337.182 179.909C337.782 179.843 338.389 179.897 338.967 180.068C341.614 180.893 342.993 184.144 342.062 187.319C341.605 188.955 340.52 190.344 339.043 191.183C338.213 191.643 337.263 191.836 336.32 191.737C336.059 191.707 335.801 191.651 335.55 191.571V191.571ZM335.601 180.717C334.198 181.524 333.169 182.851 332.737 184.411C331.847 187.43 333.145 190.514 335.636 191.289C336.178 191.45 336.747 191.5 337.309 191.437C337.871 191.374 338.414 191.199 338.907 190.922C340.311 190.119 341.34 188.793 341.77 187.233C342.661 184.214 341.363 181.13 338.872 180.35C338.33 180.185 337.761 180.132 337.198 180.195C336.636 180.258 336.092 180.436 335.601 180.717Z" fill="#764678"/>
<path d="M323.966 188.537C321.319 187.712 319.941 184.461 320.872 181.286C321.329 179.65 322.414 178.261 323.891 177.422C324.417 177.125 324.997 176.938 325.598 176.871C326.198 176.804 326.805 176.86 327.383 177.034C330.03 177.859 331.409 181.11 330.478 184.28C330.022 185.918 328.937 187.309 327.459 188.149C326.629 188.607 325.679 188.799 324.736 188.698C324.475 188.669 324.217 188.615 323.966 188.537ZM324.017 177.683C322.615 178.487 321.586 179.81 321.153 181.366C320.263 184.386 321.561 187.47 324.052 188.245C324.594 188.407 325.162 188.458 325.724 188.396C326.286 188.334 326.83 188.159 327.323 187.883C328.727 187.078 329.757 185.75 330.186 184.189C331.077 181.17 329.779 178.086 327.288 177.311C327.055 177.236 326.816 177.185 326.573 177.16C325.687 177.066 324.794 177.249 324.017 177.683V177.683Z" fill="#764678"/>
<path d="M333.835 185.054C333.859 185.057 333.882 185.054 333.904 185.045C333.926 185.036 333.946 185.022 333.961 185.004C333.989 184.976 334.004 184.938 334.004 184.898C334.004 184.859 333.989 184.821 333.961 184.793C333.901 184.742 332.451 183.459 329.674 183.555C329.654 183.555 329.635 183.559 329.617 183.566C329.599 183.574 329.583 183.585 329.57 183.6C329.557 183.614 329.547 183.631 329.54 183.649C329.534 183.667 329.531 183.687 329.533 183.706C329.533 183.725 329.537 183.745 329.544 183.763C329.552 183.781 329.563 183.797 329.577 183.811C329.591 183.824 329.608 183.835 329.626 183.842C329.644 183.849 329.664 183.852 329.684 183.852C332.341 183.756 333.75 185.004 333.765 185.014C333.783 185.035 333.808 185.049 333.835 185.054Z" fill="#764678"/>
<path d="M333.1 191.611C330.273 191.275 327.519 190.485 324.943 189.271C324.943 189.271 324.133 193.362 328.602 194.162C331.203 194.625 333.1 191.611 333.1 191.611Z" fill="#E9633E"/>
<path d="M328.641 181.311C328.693 181.297 328.74 181.269 328.777 181.23C328.813 181.19 328.838 181.141 328.847 181.088C328.857 181.035 328.851 180.981 328.83 180.931C328.81 180.881 328.776 180.839 328.732 180.808C328.165 180.451 327.494 180.296 326.828 180.366C326.162 180.436 325.539 180.728 325.058 181.195C325.003 181.245 324.969 181.313 324.962 181.387C324.956 181.461 324.977 181.534 325.023 181.593C325.073 181.645 325.141 181.677 325.213 181.683C325.285 181.69 325.357 181.67 325.416 181.628C326.369 181.183 327.444 181.068 328.47 181.301C328.524 181.323 328.585 181.327 328.641 181.311V181.311Z" fill="#080435"/>
<path d="M326.086 184.129C325.99 184.788 326.302 185.387 326.78 185.457C327.258 185.527 327.721 185.044 327.817 184.385C327.912 183.726 327.6 183.122 327.127 183.052C326.654 182.981 326.206 183.464 326.086 184.129Z" fill="#080435"/>
<path d="M338.354 183.912C338.411 183.925 338.471 183.92 338.525 183.898C338.58 183.875 338.626 183.836 338.657 183.787C338.688 183.737 338.702 183.678 338.699 183.62C338.695 183.561 338.673 183.505 338.636 183.459C338.246 182.921 337.69 182.526 337.053 182.336C336.416 182.146 335.734 182.171 335.113 182.408C335.078 182.419 335.045 182.437 335.016 182.462C334.988 182.486 334.965 182.515 334.948 182.549C334.931 182.582 334.921 182.618 334.918 182.655C334.915 182.692 334.92 182.73 334.932 182.765C334.959 182.831 335.009 182.886 335.072 182.919C335.136 182.953 335.209 182.962 335.279 182.946C336.331 182.901 337.369 183.207 338.228 183.817C338.259 183.861 338.303 183.894 338.354 183.912V183.912Z" fill="#080435"/>
<path d="M334.947 185.537C334.609 186.116 334.67 186.785 335.082 187.047C335.495 187.309 336.089 187.047 336.451 186.453C336.813 185.86 336.728 185.21 336.31 184.944C335.893 184.677 335.289 184.964 334.947 185.537Z" fill="#080435"/>
<path d="M320.047 299.297C320.047 299.297 333.468 298.522 336.93 301.43C340.392 304.339 342.646 310.694 340.12 309.355C338.218 308.237 336.446 306.91 334.836 305.4C334.836 305.4 340.472 311.262 338.54 312.002C336.608 312.742 331.757 307.589 331.757 307.589C331.757 307.589 337.916 315.107 335.868 315.207C333.82 315.308 329.185 309.562 329.185 309.562C329.185 309.562 334.64 316.787 332.26 316.848C329.88 316.908 327.791 310.85 325.864 311.584C323.937 312.319 318.411 316.571 315.724 311.408L320.047 299.297Z" fill="#FF7955"/>
<path d="M334.67 305.496C334.67 305.496 333.362 303.644 332.048 303.689V303.357C333.513 303.317 334.897 305.219 334.957 305.299L334.67 305.496Z" fill="#E9845C"/>
<path d="M331.621 307.664C331.621 307.664 330.353 305.832 328.425 305.495L328.486 305.168C330.549 305.53 331.842 307.397 331.897 307.473L331.621 307.664Z" fill="#E9845C"/>
<path d="M329.024 309.677C329.024 309.652 327.459 307.483 326.08 307.664L326.04 307.332C327.62 307.166 329.23 309.405 329.296 309.501L329.024 309.677Z" fill="#E9845C"/>
<path d="M270.545 284.342C280.433 300.685 293.084 307.246 315.699 311.408L320.047 299.296C303.581 296.277 295.147 284.231 288.52 273.277C279.1 257.678 280.796 238.703 282.21 230.316C282.275 229.926 282.233 229.527 282.09 229.159C281.946 228.792 281.706 228.47 281.394 228.227C279.291 226.602 273.846 223.291 264.089 223.095C263.665 223.089 263.252 223.226 262.915 223.483C262.578 223.741 262.338 224.104 262.232 224.514C258.151 240.022 258.1 263.762 270.545 284.342Z" fill="#FF7955"/>
<g opacity="0.3">
<path opacity="0.3" d="M275.517 281.026C275.099 281.022 274.685 280.936 274.299 280.774C273.017 280.184 272.015 279.118 271.506 277.801V277.801C270.5 275.375 271.119 272.769 272.905 272.009C273.27 271.86 273.661 271.785 274.055 271.79C274.449 271.794 274.839 271.877 275.2 272.034C276.483 272.626 277.485 273.695 277.993 275.013C278.999 277.433 278.38 280.045 276.594 280.805C276.254 280.951 275.887 281.026 275.517 281.026V281.026ZM272.231 277.504C272.659 278.626 273.505 279.538 274.591 280.05C274.856 280.168 275.143 280.233 275.433 280.239C275.723 280.245 276.012 280.192 276.282 280.085C277.671 279.486 278.114 277.348 277.288 275.32C276.86 274.198 276.015 273.286 274.928 272.774C274.663 272.655 274.377 272.591 274.086 272.585C273.796 272.579 273.507 272.631 273.237 272.739C271.849 273.337 271.406 275.476 272.231 277.504Z" fill="#EC865C"/>
</g>
<path d="M281.032 203.969C281.032 203.969 274.858 205.932 276.634 211.517C278.899 218.652 288.59 225.304 287.202 220.76C285.984 216.735 282.884 211.446 282.884 211.446C282.884 211.446 290.966 224.786 293.18 222.134C295.394 219.482 288.289 208.11 288.289 208.11C288.289 208.11 297.392 220.343 298.68 217.167C299.968 213.992 293.577 203.627 293.577 203.627C293.577 203.627 301.825 216.066 303.234 212.347C304.643 208.629 299.067 203.068 297.246 200.17C295.53 197.433 293.195 197.654 290.649 199.541C290.649 199.541 287.051 199.944 285.692 201.584C285.189 202.208 284.137 202.002 283.619 202.253C282.715 202.76 281.85 203.333 281.032 203.969V203.969Z" fill="#FF7955"/>
<path d="M161.744 416.542C161.744 416.542 161.196 417.86 160.023 419.974C159.988 420.029 159.953 420.094 159.922 420.155C156.527 426.073 152.327 431.492 147.443 436.257C145.259 438.4 142.305 440.071 138.833 441.313L138.757 441.344C138.017 441.6 137.247 441.847 136.468 442.068C125.291 445.279 109.943 444.584 97.8958 441.102L95.8226 440.463C94.7927 440.128 93.7862 439.769 92.8033 439.386C89.9923 438.319 87.3721 436.805 85.0437 434.903C84.782 434.682 84.5404 434.46 84.2788 434.239C81.8091 431.978 79.8121 429.249 78.4034 426.212C76.9946 423.174 76.202 419.888 76.0713 416.542H161.744Z" fill="#657285"/>
<path d="M164.492 401.169V412.295C164.492 419.183 143.83 424.758 118.337 424.758C92.8436 424.758 72.1865 419.183 72.1865 412.295V401.169C72.1865 397.677 84.0876 394.678 100.961 393.446C106.325 393.048 112.192 392.827 118.337 392.827C143.83 392.827 164.492 396.56 164.492 401.169Z" fill="#364154"/>
<path d="M164.492 401.169C164.492 401.844 164.059 402.493 163.234 403.117C158.393 406.78 140.136 409.522 118.337 409.522C112.238 409.522 106.4 409.306 101.071 408.913C84.138 407.675 72.1865 404.682 72.1865 401.169C72.1865 397.657 84.0876 394.678 100.961 393.446C106.325 393.048 112.192 392.827 118.337 392.827C143.83 392.827 164.492 396.56 164.492 401.169Z" fill="#131F2D"/>
<path d="M121.12 285.887C116.691 288.518 114.548 287.899 113.531 286.123C112.515 284.347 113.003 282.158 117.431 279.531C125.483 274.741 131.239 275.602 131.239 275.602C131.239 275.602 129.327 281.026 121.12 285.887Z" fill="#131F2D"/>
<path d="M120.898 319.549C117.552 323.489 115.317 323.575 113.793 322.256C112.268 320.938 112.026 318.679 115.373 314.744C121.472 307.569 127.183 306.507 127.183 306.507C127.183 306.507 127.088 312.273 120.898 319.549Z" fill="#131F2D"/>
<path d="M118.85 407.153L117.884 407.067C117.884 406.916 119.117 391.71 114.065 369.434C109.405 348.88 98.2987 317.929 71.8496 287.215L72.5793 286.566C99.1743 317.451 110.321 348.583 115.026 369.258C120.103 391.695 118.865 407.002 118.85 407.153Z" fill="#131F2D"/>
<path d="M98.6303 325.351L97.8101 324.818C116.842 294.753 105.358 258.247 105.258 257.895L106.179 257.588C106.294 257.945 117.909 294.884 98.6303 325.351Z" fill="#131F2D"/>
<path d="M83.9925 309.395C77.8371 309.311 71.8191 307.564 66.5762 304.338L67.1196 303.523C67.2153 303.588 76.7714 309.979 88.441 308.052L88.597 309.023C87.075 309.273 85.535 309.398 83.9925 309.395V309.395Z" fill="#131F2D"/>
<path d="M117.215 385.003C97.252 382.708 81.0786 372.861 69.1372 355.738C68.8517 355.305 68.5444 354.887 68.2163 354.485C68.245 354.507 68.2773 354.524 68.3119 354.535L68.6189 353.604C68.8906 353.695 69.0617 353.932 69.9273 355.169C81.7026 372.056 97.6495 381.762 117.32 384.027L117.215 385.003Z" fill="#131F2D"/>
<path d="M88.9896 374.416L88.0536 374.159C91.5006 361.278 83.0214 342.338 82.9258 342.147L83.8064 341.739C85.3912 345.403 86.7048 349.179 87.7365 353.036C89.3317 358.988 90.8464 367.487 88.9896 374.416Z" fill="#131F2D"/>
<path d="M71.2002 281.73C76.338 286.425 76.7758 289.046 75.4272 290.556C74.0786 292.066 71.4568 291.9 66.319 287.205C56.9541 278.651 54.8657 271.792 54.8657 271.792C54.8657 271.792 61.6944 273.06 71.2002 281.73Z" fill="#131F2D"/>
<path d="M69.1824 301.158C75.4827 304.066 76.6804 306.431 75.845 308.283C75.0097 310.134 72.4584 310.773 66.1581 307.87C54.6847 302.577 50.6489 296.664 50.6489 296.664C50.6489 296.664 57.538 295.789 69.1824 301.158Z" fill="#131F2D"/>
<path d="M85.8187 338.952C88.1738 343.566 87.424 345.699 85.6325 346.63C83.8411 347.561 81.6923 346.947 79.3423 342.328C75.0599 333.915 76.2274 328.164 76.2274 328.164C76.2274 328.164 81.4709 330.418 85.8187 338.952Z" fill="#131F2D"/>
<path d="M93.9308 293.736C95.1033 298.768 93.8604 300.675 91.918 301.138C89.9755 301.601 88.0231 300.474 86.8506 295.417C84.7169 286.204 87.233 280.91 87.233 280.91C87.233 280.91 91.767 284.387 93.9308 293.736Z" fill="#131F2D"/>
<path d="M101.842 369.208C101.56 374.395 99.8287 375.845 97.841 375.749C95.8533 375.653 94.2832 374.008 94.5651 368.82C95.0683 359.37 98.9632 355.003 98.9632 355.003C98.9632 355.003 102.365 359.622 101.842 369.208Z" fill="#131F2D"/>
<path d="M73.5249 354.857C76.7958 358.882 76.514 361.101 74.9641 362.405C73.4142 363.708 71.1849 363.567 67.919 359.567C61.9458 352.271 61.8955 346.409 61.8955 346.409C61.8955 346.409 67.4712 347.465 73.5249 354.857Z" fill="#131F2D"/>
<path d="M108.222 253.592C109.837 260.405 108.725 262.816 106.773 263.289C104.82 263.762 102.747 262.121 101.137 255.308C98.1978 242.9 100.321 236.042 100.321 236.042C100.321 236.042 105.243 240.998 108.222 253.592Z" fill="#131F2D"/>
<path d="M119.55 408.466C119.55 408.466 94.2378 312.862 68.8605 320.807C43.4832 328.752 99.8486 381.053 106.345 409.115L119.55 408.466Z" fill="#364154"/>
<path d="M115.836 404.154C115.836 404.154 77.0886 327.454 52.9341 338.906C28.7797 350.359 92.326 384.464 102.753 407.153L115.836 404.154Z" fill="#657285"/>
<path d="M108.363 405.975C95.1083 375.775 60.19 349.428 59.8428 349.162L60.4768 348.291C60.8341 348.553 95.9839 375.07 109.344 405.538L108.363 405.975Z" fill="#B8C1C9"/>
<path d="M195.958 338.157C195.742 338.7 195.515 339.243 195.274 339.787C193.665 343.39 191.638 346.791 189.235 349.921C186.618 353.327 186.08 357.031 186.271 360.759C186.271 360.865 186.271 360.966 186.271 361.076C186.613 366.611 188.495 372.222 187.464 376.942C187.388 377.274 187.303 377.606 187.197 377.948C186.367 380.544 184.505 382.844 180.801 384.68C168.392 390.819 166.409 390.321 165.307 395.71C165.236 396.027 165.176 396.369 165.111 396.716C164.94 397.723 164.774 398.951 164.572 400.415C164.613 400.946 164.508 401.479 164.269 401.955C164.029 402.431 163.664 402.833 163.214 403.117C158.901 406.383 143.976 408.908 125.387 409.422L124.38 409.452C122.401 409.502 120.388 409.526 118.342 409.522C112.233 409.522 106.4 409.311 101.071 408.913C99.0946 403.954 99.0551 398.433 100.96 393.446C102.004 390.826 103.492 388.405 105.359 386.291C116.47 373.455 125.402 375.724 123.318 352.99L123.243 352.21C123.243 351.994 123.198 351.778 123.178 351.561C120.591 327.308 152.973 337.794 161.07 329.602C169.167 321.411 174.657 312.238 189.25 315.836C199.49 318.372 199.813 328.355 195.958 338.157Z" fill="#00A3FE"/>
<path d="M193.659 318.648C182.754 328.281 172.499 338.626 162.962 349.614L162.152 350.555C149.874 364.89 141.404 377.606 135.718 387.569L135.215 388.434C129.05 399.358 126.258 406.865 125.397 409.422L124.391 409.452C125.553 405.93 131.818 388.615 149.758 364.503L150.367 363.688C160.537 350.132 174.37 334.468 193.025 317.898L193.659 318.648Z" fill="#016EB9"/>
<path d="M142.27 357.705C128.99 357.201 123.147 352.874 122.886 352.673L123.469 351.883C123.525 351.928 129.362 356.23 142.305 356.703L142.27 357.705Z" fill="#016EB9"/>
<path d="M150.307 364.73C145.043 362.717 140.72 357.096 137.812 348.422C136.466 344.339 135.518 340.137 134.979 335.872L135.945 335.767C135.97 336.003 138.541 359.225 150.649 363.809L150.307 364.73Z" fill="#016EB9"/>
<path d="M164.336 350.62C162.801 350.62 161.905 350.535 161.865 350.535L161.961 349.528C162.152 349.528 181.053 351.284 195.832 337.985L196.477 338.72C184.57 349.463 170.048 350.62 164.336 350.62Z" fill="#016EB9"/>
<path d="M186.191 361.746C179.503 360.769 175.286 357.72 172.931 355.305C171.44 353.843 170.228 352.123 169.353 350.228L170.254 349.855C170.294 349.951 174.083 358.988 186.332 360.774L186.191 361.746Z" fill="#016EB9"/>
<path d="M159.822 397.129C145.35 397.129 134.853 388.132 134.737 388.032L135.371 387.287C135.502 387.398 148.5 398.523 165.378 395.685L165.534 396.656C163.646 396.971 161.736 397.13 159.822 397.129Z" fill="#016EB9"/>
<path d="M145.455 393.823L144.629 393.32C147.518 388.64 154.251 382.361 169.921 378.989C175.716 377.768 181.613 377.095 187.534 376.977V377.983C187.197 377.923 155.147 378.109 145.455 393.823Z" fill="#016EB9"/>
<path d="M97.8506 441.102C102.244 440.73 107.346 440.141 112.786 439.23C113.521 439.109 114.261 438.983 115 438.848C130.313 436.075 147.855 430.676 159.892 420.16C159.951 420.117 160.007 420.07 160.058 420.019L160.003 419.973L159.349 419.47C141.927 434.807 112.61 439.215 95.7773 440.468L97.8506 441.102Z" fill="#364154"/>
<path d="M136.432 442.068H136.206C128.334 441.782 120.5 440.838 112.786 439.245V439.245L113.003 438.476C113.677 438.611 114.341 438.742 115.015 438.863C122.859 440.391 130.823 441.216 138.813 441.329V441.329L136.432 442.068Z" fill="#364154"/>
<path d="M130.072 416.542C121.769 422.706 107.764 430.128 85.054 434.903C84.7923 434.682 84.5507 434.46 84.2891 434.239C86.4428 433.789 88.5178 433.318 90.5139 432.825C91.5203 432.578 92.5267 432.322 93.4627 432.07C110.341 427.587 121.472 421.674 128.597 416.542H130.072Z" fill="#364154"/>
<path d="M106.426 416.542C102.948 423.493 97.3874 429.186 90.5189 432.825V432.825L90.4585 432.865L90.9919 433.534C91.8574 433.061 92.6827 432.573 93.4778 432.07C99.5078 428.312 104.356 422.93 107.467 416.542H106.426Z" fill="#364154"/>
<path d="M185.738 486.644C185.738 486.644 174.234 474.774 178.19 468.027C182.145 461.279 188.833 482.544 188.833 482.544C188.833 482.544 185.365 457.385 192.541 456.947C199.717 456.509 192.541 482.544 192.541 482.544C192.541 482.544 195.203 476.475 197.8 476.098C200.397 475.72 199.657 481.245 195.017 486.665L185.738 486.644Z" fill="#EAEAEA"/>
<path d="M186.558 486.936C184.31 484.542 182.288 481.945 180.52 479.177C176.846 473.295 175.991 468.611 177.918 465.3C178.643 464.062 179.513 463.488 180.515 463.599C182.528 463.831 184.797 466.91 187.449 473.024C188.239 474.85 188.959 476.677 189.497 478.191C188.858 471.59 188.128 458.447 191.731 454.039C192.065 453.602 192.487 453.242 192.97 452.982C193.454 452.722 193.987 452.567 194.534 452.529C195.026 452.484 195.52 452.564 195.972 452.761C196.424 452.958 196.819 453.266 197.121 453.656C200.372 457.682 197.453 471.947 195.853 478.634C197.045 476.682 198.736 474.508 200.462 474.256C200.819 474.181 201.191 474.224 201.521 474.378C201.852 474.532 202.123 474.79 202.294 475.112C203.356 477.044 201.922 481.99 197.69 486.921L197.045 486.373C201.212 481.517 202.339 476.953 201.574 475.519C201.484 475.349 201.339 475.215 201.163 475.138C200.986 475.062 200.789 475.047 200.603 475.097C198.379 475.419 195.782 480.305 194.967 482.141L194.172 481.854C194.172 481.799 195.767 476.048 196.819 469.778C198.203 461.556 198.087 456.162 196.487 454.18C196.268 453.895 195.98 453.672 195.651 453.529C195.322 453.387 194.962 453.33 194.605 453.364C194.172 453.398 193.752 453.523 193.373 453.734C192.993 453.944 192.663 454.233 192.406 454.582C187.852 460.117 190.76 481.703 190.79 481.92L189.965 482.106C188.456 477.321 183.826 464.822 180.439 464.439C179.8 464.364 179.216 464.787 178.668 465.722C174.391 473.029 187.036 486.212 187.167 486.353L186.558 486.936Z" fill="#364154"/>
<path d="M265.658 450.738C265.658 450.738 257.718 442.546 260.45 437.882C263.183 433.217 267.792 447.9 267.792 447.9C267.792 447.9 265.402 430.535 270.353 430.233C275.305 429.931 270.353 447.9 270.353 447.9C270.353 447.9 272.19 443.713 273.982 443.452C275.773 443.19 275.265 447.004 272.064 450.738H265.658Z" fill="#EAEAEA"/>
<path d="M266.228 450.939C264.68 449.286 263.288 447.494 262.071 445.585C259.555 441.524 258.931 438.304 260.275 436.025C260.778 435.169 261.382 434.777 262.066 434.852C263.46 435.008 265.025 437.137 266.852 441.353C267.4 442.616 267.883 443.869 268.266 444.926C267.828 440.367 267.32 431.295 269.811 428.261C270.039 427.958 270.33 427.707 270.663 427.526C270.996 427.345 271.365 427.237 271.743 427.209C272.082 427.177 272.424 427.232 272.737 427.368C273.049 427.505 273.322 427.718 273.529 427.989C275.774 430.751 273.761 440.609 272.654 445.223C273.474 443.874 274.642 442.375 275.834 442.204C276.081 442.152 276.338 442.182 276.567 442.289C276.796 442.396 276.984 442.575 277.102 442.797C277.832 444.126 276.846 447.542 273.922 450.944L273.479 450.567C276.352 447.215 277.132 444.066 276.589 443.079C276.528 442.961 276.428 442.867 276.307 442.813C276.185 442.759 276.048 442.748 275.92 442.782C274.41 443.004 272.588 446.38 272.03 447.658L271.481 447.462C271.481 447.422 272.578 443.437 273.308 439.114C274.259 433.438 274.179 429.715 273.077 428.356C272.927 428.159 272.729 428.003 272.501 427.905C272.274 427.806 272.025 427.767 271.778 427.793C271.481 427.815 271.192 427.902 270.931 428.047C270.671 428.192 270.445 428.392 270.269 428.633C267.123 432.467 269.131 447.351 269.151 447.502L268.583 447.628C267.546 444.327 264.346 435.698 262.006 435.436C261.563 435.386 261.165 435.672 260.783 436.322C257.834 441.353 266.56 450.461 266.65 450.551L266.228 450.939Z" fill="#364154"/>
<path d="M31.0539 444.272C31.0539 444.272 19.5906 432.452 23.5358 425.705C27.481 418.957 34.1386 440.176 34.1386 440.176C34.1386 440.176 30.6865 415.098 37.8372 414.665C44.988 414.232 37.8372 440.176 37.8372 440.176C37.8372 440.176 40.4892 434.138 43.0808 433.751C45.6723 433.363 44.9276 438.883 40.303 444.272H31.0539Z" fill="#EAEAEA"/>
<path d="M31.8737 444.563C29.6364 442.179 27.6282 439.59 25.8754 436.83C22.2119 430.968 21.3464 426.313 23.2788 423.002C24.0034 421.764 24.874 421.191 25.8703 421.307C27.8832 421.533 30.1376 424.602 32.7795 430.696C33.5696 432.517 34.2892 434.339 34.7924 435.848C34.1634 429.267 33.4337 416.169 37.0267 411.786C37.3576 411.35 37.7781 410.99 38.2598 410.729C38.7415 410.469 39.2733 410.315 39.8195 410.277C40.3087 410.232 40.8013 410.311 41.2517 410.507C41.7021 410.704 42.0957 411.01 42.396 411.399C45.6367 415.394 42.7281 429.629 41.1279 436.296C42.3205 434.349 44.0063 432.18 45.7273 431.934C46.0828 431.858 46.4533 431.9 46.7828 432.054C47.1123 432.207 47.3829 432.463 47.554 432.784C48.6108 434.711 47.1816 439.637 42.9596 444.558L42.3205 444.005C46.4721 439.169 47.5993 434.616 46.8143 433.192C46.7257 433.021 46.5815 432.887 46.4057 432.81C46.23 432.733 46.0332 432.719 45.8481 432.769C43.6289 433.086 41.0424 437.957 40.2322 439.813L39.4623 439.496C39.4623 439.441 41.0474 433.705 42.0991 427.42C43.4779 419.218 43.3622 413.834 41.767 411.882C41.5499 411.598 41.2641 411.375 40.9366 411.232C40.609 411.089 40.2506 411.033 39.895 411.067C39.4601 411.105 39.0387 411.238 38.6599 411.455C38.2812 411.672 37.954 411.969 37.701 412.325C33.172 417.86 36.0605 439.361 36.0907 439.577L35.2704 439.758C33.7608 434.993 29.1463 422.529 25.7747 422.147C25.1356 422.076 24.5569 422.494 24.0084 423.43C19.7462 430.711 32.3518 443.849 32.4776 443.985L31.8737 444.563Z" fill="#364154"/>
<path d="M483.391 484.853C483.391 484.853 471.923 473.024 475.843 466.286C479.763 459.549 486.471 480.758 486.471 480.758C486.471 480.758 483.019 455.679 490.17 455.241C497.32 454.804 490.17 480.758 490.17 480.758C490.17 480.758 492.821 474.719 495.413 474.332C498.005 473.944 497.26 479.464 492.635 484.853H483.391Z" fill="#EAEAEA"/>
<path d="M484.206 485.145C481.973 482.757 479.965 480.168 478.207 477.411C474.544 471.549 473.678 466.895 475.611 463.579C476.335 462.341 477.206 461.768 478.202 461.883C480.215 462.115 482.47 465.184 485.112 471.273C485.902 473.099 486.621 474.921 487.155 476.43C486.521 469.844 485.791 456.751 489.384 452.368C489.714 451.931 490.134 451.57 490.616 451.309C491.098 451.049 491.63 450.895 492.177 450.859C492.667 450.814 493.16 450.894 493.611 451.09C494.062 451.286 494.456 451.592 494.758 451.981C497.994 455.971 495.085 470.211 493.49 476.873C494.678 474.926 496.363 472.762 498.084 472.515C498.44 472.438 498.811 472.48 499.141 472.633C499.471 472.787 499.741 473.044 499.911 473.366C500.968 475.288 499.539 480.219 495.317 485.135L494.663 484.577C498.814 479.741 499.941 475.187 499.156 473.763C499.068 473.592 498.924 473.457 498.748 473.38C498.572 473.303 498.375 473.289 498.19 473.341C495.976 473.658 493.384 478.528 492.574 480.385L491.779 480.103C491.779 480.043 493.369 474.312 494.421 468.027C495.795 459.83 495.679 454.441 494.084 452.494C493.867 452.21 493.582 451.985 493.254 451.843C492.926 451.7 492.568 451.644 492.212 451.679C491.781 451.712 491.362 451.837 490.983 452.047C490.605 452.256 490.275 452.544 490.018 452.891C485.489 458.426 488.377 479.922 488.408 480.139L487.587 480.325C486.078 475.555 481.463 463.096 478.092 462.714C477.453 462.638 476.874 463.061 476.325 463.997C472.063 471.278 484.669 484.416 484.8 484.546L484.206 485.145Z" fill="#364154"/>
<path d="M380.936 497.075C380.936 497.075 369.468 485.251 373.388 478.513C377.308 471.776 383.991 492.985 383.991 492.985C383.991 492.985 380.539 467.906 387.689 467.468C394.84 467.031 387.689 492.985 387.689 492.985C387.689 492.985 390.341 486.946 392.933 486.559C395.524 486.172 394.78 491.691 390.16 497.075H380.936Z" fill="#EAEAEA"/>
<path d="M381.746 497.362C379.514 494.974 377.506 492.385 375.748 489.629C372.085 483.767 371.219 479.112 373.156 475.796C373.881 474.558 374.747 473.985 375.743 474.1C377.756 474.327 380.01 477.401 382.652 483.49C383.442 485.311 384.162 487.133 384.695 488.642C384.061 482.061 383.331 468.968 386.924 464.58C387.256 464.145 387.677 463.785 388.158 463.525C388.64 463.264 389.171 463.11 389.717 463.071C390.208 463.028 390.701 463.109 391.152 463.306C391.603 463.502 391.997 463.809 392.299 464.198C395.535 468.188 392.626 482.428 391.031 489.09C392.218 487.143 393.904 484.979 395.625 484.728C395.981 484.652 396.352 484.695 396.682 484.85C397.011 485.004 397.281 485.261 397.452 485.583C398.509 487.505 397.079 492.436 392.862 497.352L392.218 496.804C396.37 491.963 397.497 487.415 396.712 485.991C396.624 485.82 396.48 485.685 396.304 485.607C396.128 485.529 395.932 485.514 395.746 485.563C393.532 485.885 390.94 490.756 390.13 492.607L389.335 492.326C389.335 492.27 390.925 486.539 391.977 480.249C393.351 472.052 393.235 466.663 391.64 464.716C391.424 464.43 391.139 464.205 390.811 464.062C390.483 463.919 390.123 463.864 389.768 463.901C389.337 463.932 388.917 464.056 388.539 464.266C388.161 464.475 387.833 464.765 387.579 465.114C383.05 470.649 385.933 492.144 385.963 492.361L385.143 492.547C383.633 487.777 379.024 475.318 375.647 474.936C375.003 474.86 374.43 475.283 373.881 476.219C369.619 483.5 382.224 496.638 382.355 496.769L381.746 497.362Z" fill="#364154"/>
<path d="M308.508 387.121C308.508 387.121 308.714 397.436 310.672 399.982C312.629 402.529 319.543 407.782 315.352 408.632C312.946 409.135 305.921 403.887 303.778 402.669C301.634 401.452 299.118 401.23 298.348 398.896C297.508 396.329 301.221 383.695 301.221 383.695C301.775 383.46 302.371 383.345 302.972 383.357C303.573 383.369 304.165 383.508 304.709 383.765C306.207 384.589 307.505 385.736 308.508 387.121Z" fill="#131F2D"/>
<path d="M288.5 390.618C288.5 390.618 288.707 400.933 290.669 403.484C292.632 406.035 299.541 411.283 295.349 412.134C292.939 412.637 285.919 407.389 283.775 406.166C281.631 404.943 279.115 404.727 278.35 402.397C277.51 399.831 281.219 387.196 281.219 387.196C281.773 386.96 282.371 386.845 282.973 386.857C283.575 386.869 284.167 387.009 284.711 387.267C286.206 388.091 287.5 389.235 288.5 390.618V390.618Z" fill="#131F2D"/>
<path d="M315.644 383.226C313.475 354.475 312.961 335.077 303.863 322.614C293.905 308.972 269.453 295.15 259.157 294.551C242.37 293.545 232.22 300.242 232.22 300.242C219.64 326.443 239.356 329.93 253.954 330.634L255.408 330.715C264.245 331.273 279.96 333.517 285.908 342.288C290.624 349.242 293.889 359.008 295.268 384.193C295.391 386.521 296.42 388.709 298.135 390.289C299.85 391.869 302.116 392.715 304.447 392.646C304.447 392.646 316.424 393.567 315.644 383.226Z" fill="#364154"/>
<path d="M291.816 384.705C292.103 355.873 292.999 341.155 284.343 328.379C278.808 320.173 270.424 313.978 259.494 309.968C251.695 307.105 242.521 305.344 232.225 304.745C215.438 303.739 217.224 297.127 217.224 297.127C203.637 330.664 244.005 328.153 256.943 342.443C262.584 348.668 269.569 360.512 270.948 385.717C271.071 388.039 272.098 390.222 273.808 391.799C275.517 393.377 277.776 394.224 280.101 394.16C280.101 394.16 291.715 395.247 291.816 384.705Z" fill="#364154"/>
<path d="M291.735 356.392C291.735 356.216 290.875 339.113 288.006 333.14C284.539 325.914 274.188 313.627 262.981 310.21L263.037 310.024C269.488 311.991 275.044 316.595 278.571 320.087C282.657 324.163 286.25 329.004 288.183 333.034C291.066 339.042 291.922 356.181 291.927 356.357L291.735 356.392Z" fill="#131F2D"/>
<path d="M211.301 243.323C211.301 243.323 214.552 234.019 236.004 233.888C266.937 233.697 269.076 249.788 271.939 298.511C271.939 298.511 250.578 294.451 214.467 311.221C214.467 311.221 204.583 263.183 211.301 243.323Z" fill="#00A3FE"/>
<path d="M202.042 249.587L213.148 252.052C213.148 252.052 251.548 255.071 261.517 253.617C266.921 252.832 274.912 244.957 274.912 244.957C274.912 244.957 266.534 232.292 232.808 232.821C209.867 233.193 202.042 249.587 202.042 249.587Z" fill="#00A3FE"/>
<path d="M228.557 233.002C231.843 236.781 238.4 239.302 241.61 238.205C245.611 236.841 244.031 234.446 243.517 233.883C242.249 232.509 241.862 231.498 241.837 229.857V229.46L241.801 227.447L241.746 223.688L241.691 219.894L241.494 207.315L236.87 220.111L236.085 222.29L234.978 225.354L233.388 229.752C232.512 232.187 228.582 232.997 228.557 233.002Z" fill="#FF7955"/>
<path d="M202.042 249.587C200.995 251.887 204.372 255.792 209.59 258.302C214.808 260.813 219.871 260.984 220.918 258.68C221.964 256.375 218.583 252.476 213.369 249.965C208.156 247.454 203.083 247.283 202.042 249.587Z" fill="#131F2D"/>
<path d="M235.002 225.369C236.686 227.556 239.135 229.024 241.856 229.48L241.821 227.468L241.766 223.709L235.002 225.369Z" fill="#5C305D"/>
<path d="M248.912 201.333C248.912 201.333 255.056 207.104 251.02 212C246.984 216.896 248.912 201.333 248.912 201.333Z" fill="#131F2D"/>
<path d="M231.364 222.989C231.364 222.989 220.152 218.415 220.152 208.049C220.152 203.455 221.571 201.423 224.088 199.651C236.457 190.926 231.364 222.989 231.364 222.989Z" fill="#131F2D"/>
<path d="M251.206 210.717C250.199 203.058 243.949 197.569 237.221 198.464C230.493 199.36 225.839 206.289 226.835 213.947C227.831 221.606 234.096 227.09 240.824 226.2C247.552 225.309 252.202 218.375 251.206 210.717Z" fill="#FF7955"/>
<path d="M239.532 210.737C239.565 210.717 239.593 210.689 239.613 210.655C239.633 210.622 239.645 210.584 239.647 210.546C239.651 210.513 239.648 210.48 239.638 210.448C239.629 210.416 239.613 210.387 239.592 210.362C239.571 210.336 239.545 210.316 239.515 210.301C239.486 210.285 239.454 210.276 239.421 210.274C238.827 210.189 238.222 210.306 237.703 210.605C237.183 210.904 236.778 211.369 236.553 211.924C236.523 211.984 236.518 212.052 236.538 212.116C236.559 212.179 236.604 212.231 236.663 212.261C236.723 212.285 236.789 212.287 236.85 212.267C236.91 212.246 236.962 212.205 236.995 212.151C237.617 211.442 238.456 210.959 239.381 210.777C239.434 210.782 239.488 210.768 239.532 210.737V210.737Z" fill="#080435"/>
<path d="M238.465 213.962C238.621 214.546 239.084 214.918 239.501 214.808C239.72 214.692 239.889 214.5 239.976 214.268C240.062 214.036 240.06 213.78 239.969 213.55C239.813 212.971 239.35 212.594 238.933 212.709C238.709 212.818 238.536 213.009 238.449 213.242C238.362 213.476 238.367 213.733 238.465 213.962V213.962Z" fill="#080435"/>
<path d="M248.761 209.992C248.792 209.985 248.822 209.969 248.845 209.947C248.869 209.925 248.887 209.897 248.897 209.866C248.917 209.806 248.919 209.741 248.902 209.68C248.885 209.619 248.85 209.565 248.801 209.524C248.619 209.367 248.406 209.25 248.177 209.179C247.947 209.109 247.705 209.086 247.467 209.114C247.228 209.141 246.997 209.218 246.79 209.339C246.582 209.459 246.402 209.622 246.26 209.816C246.223 209.867 246.203 209.929 246.203 209.992C246.203 210.055 246.223 210.117 246.26 210.168C246.274 210.19 246.292 210.209 246.314 210.224C246.336 210.238 246.361 210.247 246.387 210.251C246.413 210.254 246.44 210.251 246.465 210.243C246.49 210.235 246.513 210.221 246.532 210.203C246.847 210.015 247.198 209.897 247.562 209.855C247.927 209.814 248.296 209.85 248.645 209.962C248.679 209.985 248.72 209.995 248.761 209.992V209.992Z" fill="#080435"/>
<path d="M246.491 212.564C246.416 213.157 246.702 213.686 247.13 213.741C247.558 213.796 247.966 213.354 248.041 212.735C248.116 212.116 247.825 211.612 247.397 211.557C246.969 211.502 246.577 211.975 246.491 212.564Z" fill="#080435"/>
<path d="M224.994 214.984C225.263 215.178 225.568 215.317 225.891 215.393C226.214 215.468 226.549 215.479 226.877 215.425C227.204 215.371 227.517 215.252 227.799 215.077C228.08 214.901 228.324 214.671 228.516 214.4C228.843 213.808 228.924 213.111 228.742 212.459C228.561 211.807 228.131 211.252 227.545 210.913C227.276 210.719 226.97 210.581 226.647 210.506C226.324 210.43 225.989 210.42 225.661 210.474C225.334 210.529 225.02 210.648 224.739 210.824C224.458 211.001 224.214 211.231 224.023 211.502C223.695 212.094 223.613 212.79 223.795 213.442C223.977 214.093 224.407 214.647 224.994 214.984V214.984Z" fill="#FF7955"/>
<path d="M218.009 202.5C217.951 202.5 217.893 202.49 217.838 202.47C217.723 202.419 217.631 202.328 217.58 202.214C217.529 202.099 217.522 201.97 217.561 201.851C217.888 200.999 218.447 200.256 219.176 199.706C219.905 199.157 220.774 198.825 221.683 198.746C221.808 198.745 221.929 198.792 222.022 198.875C222.115 198.959 222.174 199.074 222.186 199.199C222.187 199.324 222.141 199.445 222.057 199.538C221.973 199.631 221.858 199.69 221.733 199.702C221.01 199.769 220.319 200.037 219.74 200.475C219.16 200.914 218.714 201.505 218.452 202.183C218.417 202.273 218.356 202.35 218.277 202.406C218.199 202.463 218.106 202.495 218.009 202.5V202.5Z" fill="#131F2D"/>
<path d="M222.297 198.147C222.211 198.145 222.127 198.122 222.054 198.079C221.98 198.036 221.918 197.974 221.874 197.901C221.212 196.561 221.034 195.034 221.371 193.578C221.429 193.489 221.513 193.42 221.612 193.381C221.712 193.343 221.821 193.337 221.924 193.364C222.027 193.392 222.118 193.451 222.185 193.534C222.252 193.617 222.291 193.718 222.297 193.825V193.825C222.019 195.039 222.158 196.311 222.689 197.438C222.721 197.493 222.741 197.554 222.749 197.617C222.756 197.68 222.751 197.744 222.733 197.805C222.715 197.867 222.685 197.923 222.645 197.973C222.604 198.022 222.555 198.062 222.498 198.092C222.436 198.126 222.367 198.144 222.297 198.147V198.147Z" fill="#131F2D"/>
<path d="M224.088 199.651C224.022 199.352 223.978 199.047 223.957 198.741C223.816 197.02 224.037 193.206 228.018 190.187C233.332 186.161 244.76 194.001 250.421 192.929C256.082 191.857 257.491 195.686 255.081 198.177C252.671 200.668 250.421 200.301 250.421 200.301C250.421 200.301 256.087 200.069 255.735 202.57C255.383 205.071 248.932 206.978 243.255 204.12C237.579 201.262 231.571 212.04 227.263 207.783C222.956 203.526 224.088 199.651 224.088 199.651Z" fill="#131F2D"/>
<path d="M239.657 190.599C239.657 190.599 243.945 190.881 246.199 190.599C248.453 190.318 251.317 192.275 248.911 194.061C246.506 195.848 239.657 190.599 239.657 190.599Z" fill="#131F2D"/>
<path d="M270.263 304.745L257.718 294.028C272.483 277.614 266.203 252.123 266.087 251.811L272.996 246.714C276.347 251.011 287.453 273.07 270.263 304.745Z" fill="#EF6343"/>
<path d="M269.816 305.953C270.902 303.708 271.724 301.344 272.266 298.909C272.266 298.909 265.075 292.674 264.19 292.996C262.116 293.741 258.357 296.136 256.299 296.926C255.409 297.263 252.485 298.617 252.706 299.548C252.903 300.363 255.726 300.388 257.094 300.242C253.572 305.45 250.739 314.643 258.946 304.268C258.211 305.395 254.135 311.664 256.028 312.057C257.698 312.404 260.803 308.031 262.031 306.195L262.086 306.225C261.004 308.203 258.513 313.048 260.204 312.862C262.328 312.631 265.85 307.931 265.85 307.931C265.85 307.931 261.487 314.039 263.973 314.07C265.664 314.07 268.432 308.585 269.484 306.718C269.623 306.477 269.734 306.22 269.816 305.953Z" fill="#EF6343"/>
<path d="M252.274 308.937L252.888 293.842C252.681 293.842 230.037 296.267 220.727 281.448C218.568 278.094 217.18 274.302 216.664 270.347C216.148 266.391 216.516 262.37 217.743 258.574C218.452 256.325 205.595 248.827 204.991 250.8C200.659 265.04 201.172 277.851 208.323 289.233C214.422 298.939 224.536 305.375 237.57 307.85C246.925 309.591 246.975 310.104 252.274 308.937Z" fill="#FF7955"/>
<path d="M214.129 291.145C214.023 291.152 213.917 291.152 213.812 291.145C212.685 290.95 211.678 290.328 210.999 289.409V289.409C209.701 287.758 209.595 285.66 210.757 284.734C210.99 284.555 211.257 284.425 211.542 284.352C211.826 284.28 212.123 284.266 212.413 284.311C213.537 284.5 214.544 285.114 215.226 286.027C216.524 287.673 216.635 289.771 215.467 290.697C215.086 290.995 214.613 291.153 214.129 291.145ZM211.562 288.946C212.121 289.717 212.955 290.244 213.892 290.415C214.09 290.447 214.291 290.439 214.486 290.393C214.68 290.346 214.863 290.261 215.025 290.143C215.87 289.469 215.704 287.793 214.667 286.47C214.109 285.712 213.283 285.194 212.358 285.021C212.16 284.989 211.958 284.997 211.764 285.043C211.57 285.09 211.387 285.175 211.225 285.293C210.385 285.967 210.546 287.647 211.588 288.966L211.562 288.946Z" fill="#EC865C"/>
<path d="M248.222 295.925C248.222 295.925 252.555 290.525 256.651 290.239C260.747 289.952 266.202 292.568 263.686 293.288C261.734 293.747 259.738 293.995 257.733 294.028C257.733 294.028 265.1 294.279 264.275 295.925C263.45 297.57 257.044 297.298 257.044 297.298C257.044 297.298 265.784 298.274 264.486 299.593C263.188 300.911 256.56 300.096 256.56 300.096C256.56 300.096 264.647 301.319 263.102 302.818C261.557 304.318 256.425 301.761 255.599 303.412C254.774 305.062 253.737 311.131 248.761 309.515L248.222 295.925Z" fill="#FF7955"/>
<path d="M808.293 347.519L811.117 344.695C806.175 339.754 799.822 337.283 793.469 337.283C787.115 337.283 780.762 339.754 775.82 344.695L778.644 347.519C782.88 343.637 788.174 341.519 793.469 341.519C798.763 341.519 804.058 343.637 808.293 347.519ZM805.116 350.343C801.94 347.166 797.704 345.401 793.469 345.401C789.233 345.401 784.997 347.166 781.821 350.343L784.644 353.167C787.115 350.696 790.292 349.637 793.469 349.637C796.645 349.637 799.822 350.696 802.293 353.167L805.116 350.343V350.343ZM804.058 372.58H796.998V358.461H789.939V372.58H754.642C752.77 372.58 750.975 373.324 749.651 374.647C748.327 375.971 747.583 377.767 747.583 379.639V393.758C747.583 395.63 748.327 397.426 749.651 398.749C750.975 400.073 752.77 400.817 754.642 400.817H804.058C805.93 400.817 807.725 400.073 809.049 398.749C810.373 397.426 811.117 395.63 811.117 393.758V379.639C811.117 377.767 810.373 375.971 809.049 374.647C807.725 373.324 805.93 372.58 804.058 372.58ZM765.231 390.228H758.172V383.169H765.231V390.228ZM777.585 390.228H770.526V383.169H777.585V390.228ZM789.939 390.228H782.88V383.169H789.939V390.228Z" fill="#3F79E9"/>
<path d="M364.843 45.6598C367.409 48.257 369.558 51.236 371.213 54.491C371.466 54.9863 371.619 55.5266 371.663 56.0811C371.708 56.6355 371.642 57.1933 371.471 57.7225C371.3 58.2517 371.026 58.742 370.665 59.1653C370.304 59.5887 369.864 59.9369 369.368 60.19C368.873 60.443 368.333 60.5961 367.778 60.6404C367.224 60.6846 366.666 60.6192 366.137 60.448C365.608 60.2767 365.117 60.0028 364.694 59.6421C364.271 59.2813 363.923 58.8407 363.669 58.3454C362.417 55.8805 360.793 53.6232 358.854 51.6531C355.954 48.7526 352.409 46.5804 348.508 45.3146C344.607 44.0488 340.461 43.7255 336.411 44.371C332.361 45.0165 328.522 46.6126 325.208 49.0284C321.893 51.4442 319.199 54.6109 317.345 58.2691C316.823 59.2458 315.94 59.9793 314.884 60.3127C313.828 60.646 312.684 60.5527 311.696 60.0527C310.708 59.5527 309.955 58.6857 309.599 57.6374C309.242 56.5892 309.31 55.443 309.788 54.4444C312.247 49.5919 315.82 45.3911 320.215 42.1861C324.611 38.9812 329.703 36.8634 335.074 36.0062C340.446 35.1491 345.944 35.5771 351.119 37.2551C356.293 38.9331 360.996 41.8133 364.843 45.6598V45.6598ZM356.164 58.3327C358.112 60.281 359.713 62.6699 360.827 65.2113C361.051 65.7208 361.171 66.2693 361.183 66.8254C361.194 67.3816 361.096 67.9346 360.893 68.4528C360.691 68.971 360.389 69.4442 360.003 69.8455C359.618 70.2468 359.158 70.5683 358.648 70.7917C358.139 71.015 357.59 71.1358 357.034 71.1471C356.478 71.1585 355.925 71.0601 355.407 70.8578C354.888 70.6554 354.415 70.353 354.014 69.9677C353.613 69.5825 353.291 69.1219 353.068 68.6124C352.374 67.0174 351.393 65.5632 350.175 64.3218C347.607 61.7539 344.124 60.3113 340.492 60.3113C336.861 60.3113 333.378 61.7539 330.81 64.3218C329.606 65.5444 328.64 66.9808 327.963 68.5574C327.745 69.0735 327.426 69.541 327.025 69.933C326.625 70.3249 326.15 70.6335 325.629 70.8407C325.109 71.048 324.552 71.1498 323.991 71.1403C323.431 71.1308 322.878 71.0102 322.365 70.7854C321.851 70.5606 321.387 70.2362 321 69.8309C320.613 69.4256 320.31 68.9474 320.109 68.4242C319.908 67.901 319.813 67.3431 319.829 66.7829C319.846 66.2226 319.973 65.6711 320.204 65.1604C321.304 62.6167 322.87 60.301 324.821 58.3327C328.977 54.1767 334.614 51.8419 340.492 51.8419C346.37 51.8419 352.007 54.1767 356.164 58.3327V58.3327ZM376.003 35.4562C378.155 37.6079 380.184 40.0603 381.95 42.6186C382.579 43.5433 382.817 44.6793 382.611 45.7785C382.406 46.8778 381.774 47.8513 380.854 48.4865C379.933 49.1217 378.799 49.3672 377.698 49.1693C376.598 48.9714 375.62 48.3463 374.978 47.4302C373.496 45.287 371.793 43.2243 370.014 41.4453C353.614 25.0451 327.023 25.0451 310.619 41.4453C308.924 43.1353 307.243 45.1981 305.705 47.4175C305.065 48.3409 304.084 48.9721 302.978 49.1723C301.873 49.3725 300.733 49.1252 299.809 48.4849C298.886 47.8446 298.255 46.8637 298.055 45.758C297.854 44.6523 298.102 43.5123 298.742 42.589C300.555 39.9714 302.554 37.5274 304.629 35.4562C324.338 15.7438 356.295 15.7438 376.003 35.4562V35.4562ZM344.838 69.9424C345.443 70.5293 345.925 71.2307 346.256 72.0056C346.588 72.7806 346.762 73.6137 346.768 74.4566C346.775 75.2994 346.614 76.1351 346.294 76.915C345.975 77.695 345.503 78.4036 344.907 78.9998C344.312 79.5959 343.603 80.0676 342.823 80.3874C342.044 80.7072 341.208 80.8688 340.365 80.8628C339.522 80.8567 338.689 80.6831 337.914 80.3521C337.139 80.0211 336.437 79.5392 335.85 78.9346C334.687 77.7367 334.041 76.1293 334.053 74.4596C334.065 72.7898 334.734 71.1918 335.914 70.0108C337.095 68.8298 338.692 68.1607 340.362 68.1479C342.032 68.1351 343.64 68.7797 344.838 69.9424V69.9424Z" fill="#3F79E9"/>
<path d="M483.522 63.3403H434.356C430.976 63.3403 428.21 66.1059 428.21 69.4861V106.361C428.21 109.741 430.976 112.506 434.356 112.506H446.648V118.652H471.231V112.506H483.522C486.903 112.506 489.637 109.741 489.637 106.361L489.668 69.4861C489.668 66.1059 486.903 63.3403 483.522 63.3403ZM483.522 106.361H434.356V69.4861H483.522V106.361ZM437.429 97.142V103.288H443.575C443.575 99.8769 440.84 97.142 437.429 97.142ZM437.429 87.9234V92.3176C443.483 92.3176 448.399 97.2342 448.399 103.288H452.794C452.794 94.8066 445.91 87.9234 437.429 87.9234ZM437.429 78.7047V83.1604C448.522 83.1604 457.556 92.164 457.556 103.288H462.012C462.012 89.7057 450.981 78.7047 437.429 78.7047Z" fill="#3F79E9"/>
<path d="M224.981 86.4907L229.927 81.9551C231.28 80.7135 232.232 79.0958 232.66 77.3096C233.088 75.5233 232.972 73.65 232.328 71.9299L230.215 66.2881C229.426 64.183 227.864 62.4579 225.848 61.4645C223.831 60.471 221.512 60.2839 219.362 60.9412C211.453 63.3611 205.373 70.713 207.244 79.4454C208.475 85.1886 210.828 92.3976 215.292 100.07C219.033 106.531 223.739 112.384 229.247 117.424C235.861 123.444 245.31 121.939 251.39 116.272C253.02 114.752 254.009 112.668 254.155 110.445C254.302 108.221 253.595 106.026 252.178 104.306L248.304 99.5996C247.137 98.1805 245.571 97.1427 243.81 96.6195C242.048 96.0963 240.17 96.1117 238.417 96.6635L232.019 98.6801C231.773 98.4266 231.489 98.1246 231.176 97.7766C229.861 96.3215 228.697 94.7361 227.703 93.0452C226.736 91.3385 225.945 89.5377 225.343 87.6707C225.214 87.2799 225.094 86.8865 224.981 86.4907V86.4907Z" fill="#3F79E9"/>
<path d="M153.385 134.99L132.096 141.126H154.251C154.562 141.126 154.86 141.25 155.079 141.469C155.299 141.689 155.422 141.987 155.422 142.297V158.692C155.422 160.244 154.805 161.734 153.707 162.832C152.609 163.93 151.12 164.547 149.567 164.547H128.489C126.936 164.547 125.447 163.93 124.349 162.832C123.251 161.734 122.634 160.244 122.634 158.692V142.464L122.032 140.372C121.819 139.633 121.753 138.86 121.839 138.095C121.925 137.331 122.161 136.591 122.533 135.918C122.905 135.245 123.406 134.652 124.007 134.172C124.608 133.693 125.298 133.337 126.037 133.124L146.288 127.285C147.027 127.072 147.801 127.006 148.565 127.092C149.329 127.178 150.069 127.414 150.742 127.786C151.415 128.158 152.009 128.659 152.488 129.26C152.968 129.861 153.324 130.551 153.537 131.29L154.186 133.538C154.229 133.686 154.242 133.841 154.225 133.994C154.208 134.147 154.161 134.296 154.087 134.43C154.012 134.565 153.912 134.684 153.791 134.78C153.671 134.876 153.533 134.948 153.385 134.99V134.99ZM124.606 140.845L126.025 140.435L129.402 134.592L126.686 135.377C125.79 135.634 125.034 136.236 124.582 137.05C124.131 137.865 124.021 138.826 124.278 139.721L124.604 140.845H124.606ZM129.269 139.501L134.236 138.068L137.614 132.22L132.639 133.655C132.623 133.689 132.606 133.722 132.588 133.754L129.269 139.503V139.501ZM142.45 135.702L145.825 129.852L140.848 131.287C140.829 131.33 140.808 131.371 140.785 131.412L137.482 137.136L142.447 135.705L142.45 135.702ZM148.734 129.491C148.72 129.52 148.705 129.548 148.689 129.575L145.691 134.765L151.61 133.06L151.286 131.936C151.115 131.339 150.788 130.799 150.34 130.369C149.891 129.94 149.337 129.637 148.734 129.491V129.491Z" fill="#3F79E9"/>
<g clip-path="url(#clip0_355:4878)">
<path d="M589.246 143.069H586.505V159.513H589.246C589.606 159.514 589.962 159.443 590.295 159.305C590.628 159.168 590.93 158.966 591.185 158.711C591.439 158.457 591.641 158.154 591.779 157.822C591.916 157.489 591.987 157.132 591.986 156.772V145.81C591.987 145.45 591.916 145.093 591.779 144.76C591.641 144.428 591.439 144.125 591.185 143.871C590.93 143.616 590.628 143.414 590.295 143.277C589.962 143.139 589.606 143.069 589.246 143.069V143.069ZM545.395 138.958V162.254C545.396 163.707 545.974 165.1 547.002 166.128C548.029 167.156 549.423 167.734 550.876 167.735H578.283C579.736 167.734 581.13 167.156 582.157 166.128C583.185 165.1 583.763 163.707 583.764 162.254V138.958C583.765 138.058 583.588 137.167 583.243 136.336C582.899 135.504 582.394 134.749 581.758 134.112C581.122 133.476 580.366 132.971 579.535 132.627C578.704 132.283 577.812 132.106 576.913 132.106H567.32V126.625C567.32 125.898 567.031 125.201 566.517 124.687C566.004 124.173 565.306 123.884 564.58 123.884C563.853 123.884 563.156 124.173 562.642 124.687C562.128 125.201 561.839 125.898 561.839 126.625V132.106H552.246C551.347 132.106 550.456 132.283 549.624 132.627C548.793 132.971 548.037 133.476 547.401 134.112C546.765 134.749 546.26 135.504 545.916 136.336C545.572 137.167 545.395 138.058 545.395 138.958V138.958ZM569.376 145.81C569.376 145.132 569.577 144.47 569.953 143.906C570.33 143.343 570.865 142.904 571.491 142.645C572.117 142.385 572.805 142.317 573.47 142.45C574.134 142.582 574.745 142.908 575.224 143.387C575.703 143.866 576.029 144.477 576.162 145.141C576.294 145.806 576.226 146.495 575.967 147.121C575.707 147.747 575.268 148.282 574.705 148.658C574.142 149.035 573.479 149.236 572.802 149.236C572.352 149.236 571.906 149.147 571.491 148.975C571.075 148.803 570.697 148.55 570.379 148.232C570.061 147.914 569.809 147.536 569.636 147.121C569.464 146.705 569.376 146.26 569.376 145.81V145.81ZM570.061 156.772H575.542V159.513H570.061V156.772ZM561.839 156.772H567.32V159.513H561.839V156.772ZM552.932 145.81C552.932 145.132 553.133 144.47 553.509 143.906C553.885 143.343 554.421 142.904 555.046 142.645C555.672 142.385 556.361 142.317 557.026 142.45C557.69 142.582 558.301 142.908 558.78 143.387C559.259 143.866 559.585 144.477 559.718 145.141C559.85 145.806 559.782 146.495 559.523 147.121C559.263 147.747 558.824 148.282 558.261 148.658C557.697 149.035 557.035 149.236 556.358 149.236C555.908 149.236 555.462 149.147 555.046 148.975C554.631 148.803 554.253 148.55 553.935 148.232C553.617 147.914 553.365 147.536 553.192 147.121C553.02 146.705 552.932 146.26 552.932 145.81V145.81ZM553.617 156.772H559.098V159.513H553.617V156.772ZM537.173 145.81V156.772C537.172 157.132 537.243 157.489 537.381 157.822C537.518 158.154 537.72 158.457 537.975 158.711C538.229 158.966 538.531 159.168 538.864 159.305C539.197 159.443 539.553 159.514 539.913 159.513H542.654V143.069H539.913C539.553 143.069 539.197 143.139 538.864 143.277C538.531 143.414 538.229 143.616 537.975 143.871C537.72 144.125 537.518 144.428 537.381 144.76C537.243 145.093 537.172 145.45 537.173 145.81Z" fill="#3F79E9"/>
</g>
<defs>
<clipPath id="clip0_355:4878">
<rect width="54.8136" height="43.8508" fill="white" transform="matrix(-1 0 0 1 591.986 123.884)"/>
</clipPath>
</defs>
</svg>
