<svg width="current" height="current" viewBox="0 0 24 24" fill="none" xmlns="http://www.w3.org/2000/svg">
<path d="M23 12C23 14.9174 21.8411 17.7153 19.7782 19.7782C17.7153 21.8411 14.9174 23 12 23C9.08262 23 6.28473 21.8411 4.22183 19.7782C2.15893 17.7153 1 14.9174 1 12C1 9.08262 2.15893 6.28473 4.22183 4.22183C6.28473 2.15893 9.08262 1 12 1C14.9174 1 17.7153 2.15893 19.7782 4.22183C21.8411 6.28473 23 9.08262 23 12V12ZM8.557 9.29537H9.69138C9.88113 9.29537 10.0324 9.14 10.0571 8.95162C10.1809 8.04962 10.7996 7.39238 11.9024 7.39238C12.8456 7.39238 13.7091 7.864 13.7091 8.99837C13.7091 9.8715 13.1949 10.273 12.3822 10.8835C11.4569 11.5559 10.724 12.341 10.7763 13.6156L10.7804 13.914C10.7818 14.0042 10.8187 14.0902 10.883 14.1535C10.9473 14.2168 11.0339 14.2523 11.1241 14.2522H12.2392C12.3304 14.2522 12.4179 14.216 12.4823 14.1516C12.5468 14.0871 12.583 13.9997 12.583 13.9085V13.7641C12.583 12.7769 12.9584 12.4895 13.9718 11.7209C14.8091 11.0842 15.6823 10.3775 15.6823 8.89388C15.6823 6.81625 13.9278 5.8125 12.0069 5.8125C10.2648 5.8125 8.35625 6.62375 8.22563 8.95575C8.22374 9.00015 8.23096 9.04447 8.24684 9.08598C8.26272 9.1275 8.28693 9.16532 8.31796 9.19713C8.349 9.22894 8.38622 9.25407 8.42733 9.27096C8.46843 9.28786 8.51256 9.29616 8.557 9.29537V9.29537ZM11.7539 18.1545C12.5926 18.1545 13.1688 17.6127 13.1688 16.8799C13.1688 16.1209 12.5913 15.5874 11.7539 15.5874C10.9509 15.5874 10.3665 16.1209 10.3665 16.8799C10.3665 17.6127 10.9509 18.1545 11.7553 18.1545H11.7539Z" fill="current"/>
</svg>
