<svg width="current" height="current" viewBox="0 0 24 24" fill="none" xmlns="http://www.w3.org/2000/svg">
<path fill-rule="evenodd" clip-rule="evenodd" d="M4 5C4 4.20435 4.31607 3.44129 4.87868 2.87868C5.44129 2.31607 6.20435 2 7 2H17C17.7956 2 18.5587 2.31607 19.1213 2.87868C19.6839 3.44129 20 4.20435 20 5V21C19.9999 21.1751 19.9539 21.3472 19.8665 21.4989C19.7791 21.6506 19.6533 21.7767 19.5019 21.8646C19.3504 21.9525 19.1785 21.9991 19.0034 21.9997C18.8283 22.0003 18.6561 21.9549 18.504 21.868L15.5 20.152L13.488 21.302C13.0348 21.5609 12.5219 21.697 12 21.697C11.4781 21.697 10.9652 21.5609 10.512 21.302L8.5 20.151L5.496 21.867C5.34401 21.9538 5.1719 21.9992 4.99687 21.9987C4.82184 21.9981 4.65001 21.9516 4.49858 21.8639C4.34714 21.7761 4.22139 21.6501 4.13389 21.4985C4.0464 21.3469 4.00023 21.175 4 21V5ZM9 6C8.73478 6 8.48043 6.10536 8.29289 6.29289C8.10536 6.48043 8 6.73478 8 7C8 7.26522 8.10536 7.51957 8.29289 7.70711C8.48043 7.89464 8.73478 8 9 8H15C15.2652 8 15.5196 7.89464 15.7071 7.70711C15.8946 7.51957 16 7.26522 16 7C16 6.73478 15.8946 6.48043 15.7071 6.29289C15.5196 6.10536 15.2652 6 15 6H9ZM9 10C8.73478 10 8.48043 10.1054 8.29289 10.2929C8.10536 10.4804 8 10.7348 8 11C8 11.2652 8.10536 11.5196 8.29289 11.7071C8.48043 11.8946 8.73478 12 9 12H15C15.2652 12 15.5196 11.8946 15.7071 11.7071C15.8946 11.5196 16 11.2652 16 11C16 10.7348 15.8946 10.4804 15.7071 10.2929C15.5196 10.1054 15.2652 10 15 10H9ZM9 14C8.73478 14 8.48043 14.1054 8.29289 14.2929C8.10536 14.4804 8 14.7348 8 15C8 15.2652 8.10536 15.5196 8.29289 15.7071C8.48043 15.8946 8.73478 16 9 16H12C12.2652 16 12.5196 15.8946 12.7071 15.7071C12.8946 15.5196 13 15.2652 13 15C13 14.7348 12.8946 14.4804 12.7071 14.2929C12.5196 14.1054 12.2652 14 12 14H9Z" fill="current" />
</svg>
