<svg width="20" height="20" viewBox="0 0 20 20" fill="none" xmlns="http://www.w3.org/2000/svg">
<path d="M3.125 2.5C2.62772 2.5 2.15081 2.69754 1.79917 3.04917C1.44754 3.40081 1.25 3.87772 1.25 4.375V15H18.75V4.375C18.75 3.87772 18.5525 3.40081 18.2008 3.04917C17.8492 2.69754 17.3723 2.5 16.875 2.5H3.125ZM0 15.625H20C20 16.1223 19.8025 16.5992 19.4508 16.9508C19.0992 17.3025 18.6223 17.5 18.125 17.5H1.875C1.37772 17.5 0.900805 17.3025 0.549175 16.9508C0.197544 16.5992 0 16.1223 0 15.625H0Z" fill="black" fill-opacity="0.5"/>
</svg>
