<svg width="current" height="current" viewBox="0 0 24 24" fill="none" xmlns="http://www.w3.org/2000/svg">
<path fill-rule="evenodd" clip-rule="evenodd" d="M6 3C5.20435 3 4.44129 3.31607 3.87868 3.87868C3.31607 4.44129 3 5.20435 3 6V18C3 18.7956 3.31607 19.5587 3.87868 20.1213C4.44129 20.6839 5.20435 21 6 21H10C10.7956 21 11.5587 20.6839 12.1213 20.1213C12.6839 19.5587 13 18.7956 13 18V13H17.586L15.293 15.293C15.1108 15.4816 15.01 15.7342 15.0123 15.9964C15.0146 16.2586 15.1198 16.5094 15.3052 16.6948C15.4906 16.8802 15.7414 16.9854 16.0036 16.9877C16.2658 16.99 16.5184 16.8892 16.707 16.707L20.707 12.707C20.8945 12.5195 20.9998 12.2652 20.9998 12C20.9998 11.7348 20.8945 11.4805 20.707 11.293L16.707 7.293C16.6148 7.19749 16.5044 7.12131 16.3824 7.0689C16.2604 7.01649 16.1292 6.9889 15.9964 6.98775C15.8636 6.9866 15.7319 7.0119 15.609 7.06218C15.4861 7.11246 15.3745 7.18671 15.2806 7.2806C15.1867 7.3745 15.1125 7.48615 15.0622 7.60905C15.0119 7.73194 14.9866 7.86362 14.9877 7.9964C14.9889 8.12918 15.0165 8.2604 15.0689 8.3824C15.1213 8.50441 15.1975 8.61475 15.293 8.707L17.586 11H13V6C13 5.20435 12.6839 4.44129 12.1213 3.87868C11.5587 3.31607 10.7956 3 10 3H6ZM13 11H8C7.73478 11 7.48043 11.1054 7.29289 11.2929C7.10536 11.4804 7 11.7348 7 12C7 12.2652 7.10536 12.5196 7.29289 12.7071C7.48043 12.8946 7.73478 13 8 13H13V11Z" fill="current" />
</svg>
