<svg width="current" height="current" viewBox="0 0 24 24" fill="none" xmlns="http://www.w3.org/2000/svg">
<path d="M16.75 4C17.3201 3.99993 17.869 4.2163 18.2858 4.60537C18.7025 4.99444 18.956 5.52721 18.995 6.096L19 6.25V17.5C18.9998 17.6249 19.0463 17.7455 19.1305 17.8378C19.2147 17.9301 19.3304 17.9876 19.4548 17.9989C19.5793 18.0102 19.7034 17.9745 19.8028 17.8988C19.9023 17.8231 19.9697 17.7129 19.992 17.59L20 17.5V7.014C20.5219 7.07236 21.007 7.31146 21.3712 7.68988C21.7354 8.06831 21.9557 8.5622 21.994 9.086L22 9.25V16.75C22.0001 17.5801 21.6824 18.3788 21.1123 18.9822C20.5422 19.5856 19.7628 19.948 18.934 19.995L18.75 20H5.25C4.41986 20.0001 3.62117 19.6824 3.01777 19.1123C2.41437 18.5422 2.052 17.7628 2.005 16.934L2 16.75V6.25C1.99993 5.67987 2.2163 5.13098 2.60537 4.71425C2.99444 4.29751 3.52721 4.04402 4.096 4.005L4.25 4H16.75ZM9.248 11H5.748C5.54909 11 5.35832 11.079 5.21767 11.2197C5.07702 11.3603 4.998 11.5511 4.998 11.75V15.25C4.998 15.664 5.334 16 5.748 16H9.248C9.44691 16 9.63768 15.921 9.77833 15.7803C9.91898 15.6397 9.998 15.4489 9.998 15.25V11.75C9.998 11.5511 9.91898 11.3603 9.77833 11.2197C9.63768 11.079 9.44691 11 9.248 11ZM15.252 14.5H12.754L12.652 14.507C12.4638 14.5329 12.2924 14.6293 12.1724 14.7767C12.0525 14.9241 11.993 15.1115 12.006 15.3011C12.0189 15.4907 12.1034 15.6683 12.2422 15.798C12.3811 15.9278 12.564 15.9999 12.754 16H15.252L15.354 15.993C15.5423 15.9671 15.7137 15.8707 15.8336 15.7233C15.9535 15.5759 16.013 15.3885 16 15.1989C15.9871 15.0093 15.9026 14.8317 15.7638 14.702C15.6249 14.5722 15.442 14.5001 15.252 14.5V14.5ZM8.498 12.5V14.5H6.498V12.5H8.498ZM15.25 11L12.752 11.005L12.65 11.011C12.4599 11.0351 12.2863 11.1309 12.1646 11.279C12.043 11.427 11.9827 11.616 11.996 11.8071C12.0093 11.9983 12.0952 12.1771 12.2362 12.3068C12.3771 12.4366 12.5624 12.5075 12.754 12.505L15.253 12.5L15.354 12.493C15.5423 12.4671 15.7138 12.3706 15.8337 12.2231C15.9536 12.0756 16.0131 11.888 16 11.6984C15.9869 11.5087 15.9023 11.3311 15.7632 11.2015C15.6242 11.0718 15.4411 10.9998 15.251 11H15.25ZM15.251 7.504H5.748L5.646 7.511C5.45775 7.5369 5.28635 7.63329 5.16643 7.7807C5.04652 7.92811 4.98702 8.11554 4.99997 8.30512C5.01293 8.4947 5.09736 8.6723 5.23621 8.80203C5.37506 8.93176 5.55798 9.00394 5.748 9.004H15.252L15.354 8.998C15.5439 8.97392 15.7173 8.87816 15.8389 8.73034C15.9605 8.58252 16.0209 8.39382 16.0079 8.20288C15.9948 8.01193 15.9093 7.8332 15.7688 7.70327C15.6283 7.57334 15.4434 7.50205 15.252 7.504H15.251Z" fill="current"/>
</svg>
