<svg width="20" height="20" viewBox="0 0 20 20" fill="none" xmlns="http://www.w3.org/2000/svg">
<path d="M4 3C4 1.89543 4.89543 1 6 1H18C19.1046 1 20 1.89543 20 3V15C20 16.1046 19.1046 17 18 17H6C4.89543 17 4 16.1046 4 15V3Z" fill="#808080"/>
<path d="M0 8C0 6.89543 0.895431 6 2 6H8C9.10457 6 10 6.89543 10 8V18C10 19.1046 9.10457 20 8 20H2C0.89543 20 0 19.1046 0 18V8Z" fill="#808080"/>
<path fill-rule="evenodd" clip-rule="evenodd" d="M8 7H2C1.44772 7 1 7.44772 1 8V18C1 18.5523 1.44772 19 2 19H8C8.55229 19 9 18.5523 9 18V8C9 7.44772 8.55228 7 8 7ZM2 6C0.895431 6 0 6.89543 0 8V18C0 19.1046 0.89543 20 2 20H8C9.10457 20 10 19.1046 10 18V8C10 6.89543 9.10457 6 8 6H2Z" fill="white"/>
<path d="M19.2 8.6C19.2 8.93137 18.9314 9.2 18.6 9.2C18.2686 9.2 18 8.93137 18 8.6C18 8.26863 18.2686 8 18.6 8C18.9314 8 19.2 8.26863 19.2 8.6Z" fill="white"/>
</svg>
