<svg width="current" height="current" viewBox="0 0 18 18" fill="none" xmlns="http://www.w3.org/2000/svg">
<circle cx="9" cy="9" r="9" transform="rotate(90 9 9)" fill="current"/>
<path d="M5.24963 7.12459C5.39566 7.12431 5.53718 7.17516 5.64963 7.26834L8.99963 10.0683L12.3559 7.36834C12.4198 7.31643 12.4934 7.27766 12.5723 7.25426C12.6513 7.23087 12.7341 7.22331 12.816 7.23202C12.8979 7.24073 12.9772 7.26554 13.0495 7.30503C13.1218 7.34451 13.1855 7.39789 13.2371 7.46209C13.289 7.52602 13.3278 7.59958 13.3512 7.67854C13.3746 7.75751 13.3822 7.84031 13.3734 7.92221C13.3647 8.0041 13.3399 8.08346 13.3004 8.15574C13.261 8.22801 13.2076 8.29177 13.1434 8.34334L9.39338 11.3621C9.28154 11.454 9.14127 11.5043 8.9965 11.5043C8.85173 11.5043 8.71146 11.454 8.59963 11.3621L4.84963 8.23709C4.78634 8.18462 4.73403 8.12019 4.69568 8.04747C4.65734 7.97475 4.63371 7.89518 4.62617 7.81332C4.61862 7.73146 4.62729 7.64892 4.6517 7.57042C4.6761 7.49191 4.71575 7.419 4.76838 7.35584C4.82653 7.28415 4.89986 7.22622 4.98307 7.18624C5.06628 7.14626 5.15731 7.1252 5.24963 7.12459Z" fill="white"/>
</svg>
